%TF.GenerationSoftware,KiCad,Pcbnew,10.0.0*%
%TF.CreationDate,2026-03-25T16:21:30+08:00*%
%TF.ProjectId,HPM5E31,48504d35-4533-4312-9e6b-696361645f70,rev?*%
%TF.SameCoordinates,Original*%
%TF.FileFunction,Legend,Bot*%
%TF.FilePolarity,Positive*%
%FSLAX46Y46*%
G04 Gerber Fmt 4.6, Leading zero omitted, Abs format (unit mm)*
G04 Created by KiCad (PCBNEW 10.0.0) date 2026-03-25 16:21:30*
%MOMM*%
%LPD*%
G01*
G04 APERTURE LIST*
%ADD10C,0.300000*%
%ADD11C,0.150000*%
%ADD12C,0.120000*%
G04 APERTURE END LIST*
D10*
X243865225Y-98675828D02*
X243008082Y-98675828D01*
X243436653Y-98675828D02*
X243436653Y-97175828D01*
X243436653Y-97175828D02*
X243293796Y-97390114D01*
X243293796Y-97390114D02*
X243150939Y-97532971D01*
X243150939Y-97532971D02*
X243008082Y-97604400D01*
X244436653Y-97318685D02*
X244508081Y-97247257D01*
X244508081Y-97247257D02*
X244650939Y-97175828D01*
X244650939Y-97175828D02*
X245008081Y-97175828D01*
X245008081Y-97175828D02*
X245150939Y-97247257D01*
X245150939Y-97247257D02*
X245222367Y-97318685D01*
X245222367Y-97318685D02*
X245293796Y-97461542D01*
X245293796Y-97461542D02*
X245293796Y-97604400D01*
X245293796Y-97604400D02*
X245222367Y-97818685D01*
X245222367Y-97818685D02*
X244365224Y-98675828D01*
X244365224Y-98675828D02*
X245293796Y-98675828D01*
X246722367Y-98675828D02*
X245865224Y-98675828D01*
X246293795Y-98675828D02*
X246293795Y-97175828D01*
X246293795Y-97175828D02*
X246150938Y-97390114D01*
X246150938Y-97390114D02*
X246008081Y-97532971D01*
X246008081Y-97532971D02*
X245865224Y-97604400D01*
X247293795Y-97318685D02*
X247365223Y-97247257D01*
X247365223Y-97247257D02*
X247508081Y-97175828D01*
X247508081Y-97175828D02*
X247865223Y-97175828D01*
X247865223Y-97175828D02*
X248008081Y-97247257D01*
X248008081Y-97247257D02*
X248079509Y-97318685D01*
X248079509Y-97318685D02*
X248150938Y-97461542D01*
X248150938Y-97461542D02*
X248150938Y-97604400D01*
X248150938Y-97604400D02*
X248079509Y-97818685D01*
X248079509Y-97818685D02*
X247222366Y-98675828D01*
X247222366Y-98675828D02*
X248150938Y-98675828D01*
X249579509Y-98675828D02*
X248722366Y-98675828D01*
X249150937Y-98675828D02*
X249150937Y-97175828D01*
X249150937Y-97175828D02*
X249008080Y-97390114D01*
X249008080Y-97390114D02*
X248865223Y-97532971D01*
X248865223Y-97532971D02*
X248722366Y-97604400D01*
X250150937Y-97318685D02*
X250222365Y-97247257D01*
X250222365Y-97247257D02*
X250365223Y-97175828D01*
X250365223Y-97175828D02*
X250722365Y-97175828D01*
X250722365Y-97175828D02*
X250865223Y-97247257D01*
X250865223Y-97247257D02*
X250936651Y-97318685D01*
X250936651Y-97318685D02*
X251008080Y-97461542D01*
X251008080Y-97461542D02*
X251008080Y-97604400D01*
X251008080Y-97604400D02*
X250936651Y-97818685D01*
X250936651Y-97818685D02*
X250079508Y-98675828D01*
X250079508Y-98675828D02*
X251008080Y-98675828D01*
X252436651Y-98675828D02*
X251579508Y-98675828D01*
X252008079Y-98675828D02*
X252008079Y-97175828D01*
X252008079Y-97175828D02*
X251865222Y-97390114D01*
X251865222Y-97390114D02*
X251722365Y-97532971D01*
X251722365Y-97532971D02*
X251579508Y-97604400D01*
X253008079Y-97318685D02*
X253079507Y-97247257D01*
X253079507Y-97247257D02*
X253222365Y-97175828D01*
X253222365Y-97175828D02*
X253579507Y-97175828D01*
X253579507Y-97175828D02*
X253722365Y-97247257D01*
X253722365Y-97247257D02*
X253793793Y-97318685D01*
X253793793Y-97318685D02*
X253865222Y-97461542D01*
X253865222Y-97461542D02*
X253865222Y-97604400D01*
X253865222Y-97604400D02*
X253793793Y-97818685D01*
X253793793Y-97818685D02*
X252936650Y-98675828D01*
X252936650Y-98675828D02*
X253865222Y-98675828D01*
X255293793Y-98675828D02*
X254436650Y-98675828D01*
X254865221Y-98675828D02*
X254865221Y-97175828D01*
X254865221Y-97175828D02*
X254722364Y-97390114D01*
X254722364Y-97390114D02*
X254579507Y-97532971D01*
X254579507Y-97532971D02*
X254436650Y-97604400D01*
D11*
X197492857Y-103609819D02*
X197826190Y-103133628D01*
X198064285Y-103609819D02*
X198064285Y-102609819D01*
X198064285Y-102609819D02*
X197683333Y-102609819D01*
X197683333Y-102609819D02*
X197588095Y-102657438D01*
X197588095Y-102657438D02*
X197540476Y-102705057D01*
X197540476Y-102705057D02*
X197492857Y-102800295D01*
X197492857Y-102800295D02*
X197492857Y-102943152D01*
X197492857Y-102943152D02*
X197540476Y-103038390D01*
X197540476Y-103038390D02*
X197588095Y-103086009D01*
X197588095Y-103086009D02*
X197683333Y-103133628D01*
X197683333Y-103133628D02*
X198064285Y-103133628D01*
X196540476Y-103609819D02*
X197111904Y-103609819D01*
X196826190Y-103609819D02*
X196826190Y-102609819D01*
X196826190Y-102609819D02*
X196921428Y-102752676D01*
X196921428Y-102752676D02*
X197016666Y-102847914D01*
X197016666Y-102847914D02*
X197111904Y-102895533D01*
X195683333Y-102609819D02*
X195873809Y-102609819D01*
X195873809Y-102609819D02*
X195969047Y-102657438D01*
X195969047Y-102657438D02*
X196016666Y-102705057D01*
X196016666Y-102705057D02*
X196111904Y-102847914D01*
X196111904Y-102847914D02*
X196159523Y-103038390D01*
X196159523Y-103038390D02*
X196159523Y-103419342D01*
X196159523Y-103419342D02*
X196111904Y-103514580D01*
X196111904Y-103514580D02*
X196064285Y-103562200D01*
X196064285Y-103562200D02*
X195969047Y-103609819D01*
X195969047Y-103609819D02*
X195778571Y-103609819D01*
X195778571Y-103609819D02*
X195683333Y-103562200D01*
X195683333Y-103562200D02*
X195635714Y-103514580D01*
X195635714Y-103514580D02*
X195588095Y-103419342D01*
X195588095Y-103419342D02*
X195588095Y-103181247D01*
X195588095Y-103181247D02*
X195635714Y-103086009D01*
X195635714Y-103086009D02*
X195683333Y-103038390D01*
X195683333Y-103038390D02*
X195778571Y-102990771D01*
X195778571Y-102990771D02*
X195969047Y-102990771D01*
X195969047Y-102990771D02*
X196064285Y-103038390D01*
X196064285Y-103038390D02*
X196111904Y-103086009D01*
X196111904Y-103086009D02*
X196159523Y-103181247D01*
X195632857Y-76349580D02*
X195680476Y-76397200D01*
X195680476Y-76397200D02*
X195823333Y-76444819D01*
X195823333Y-76444819D02*
X195918571Y-76444819D01*
X195918571Y-76444819D02*
X196061428Y-76397200D01*
X196061428Y-76397200D02*
X196156666Y-76301961D01*
X196156666Y-76301961D02*
X196204285Y-76206723D01*
X196204285Y-76206723D02*
X196251904Y-76016247D01*
X196251904Y-76016247D02*
X196251904Y-75873390D01*
X196251904Y-75873390D02*
X196204285Y-75682914D01*
X196204285Y-75682914D02*
X196156666Y-75587676D01*
X196156666Y-75587676D02*
X196061428Y-75492438D01*
X196061428Y-75492438D02*
X195918571Y-75444819D01*
X195918571Y-75444819D02*
X195823333Y-75444819D01*
X195823333Y-75444819D02*
X195680476Y-75492438D01*
X195680476Y-75492438D02*
X195632857Y-75540057D01*
X194728095Y-75444819D02*
X195204285Y-75444819D01*
X195204285Y-75444819D02*
X195251904Y-75921009D01*
X195251904Y-75921009D02*
X195204285Y-75873390D01*
X195204285Y-75873390D02*
X195109047Y-75825771D01*
X195109047Y-75825771D02*
X194870952Y-75825771D01*
X194870952Y-75825771D02*
X194775714Y-75873390D01*
X194775714Y-75873390D02*
X194728095Y-75921009D01*
X194728095Y-75921009D02*
X194680476Y-76016247D01*
X194680476Y-76016247D02*
X194680476Y-76254342D01*
X194680476Y-76254342D02*
X194728095Y-76349580D01*
X194728095Y-76349580D02*
X194775714Y-76397200D01*
X194775714Y-76397200D02*
X194870952Y-76444819D01*
X194870952Y-76444819D02*
X195109047Y-76444819D01*
X195109047Y-76444819D02*
X195204285Y-76397200D01*
X195204285Y-76397200D02*
X195251904Y-76349580D01*
X194109047Y-75873390D02*
X194204285Y-75825771D01*
X194204285Y-75825771D02*
X194251904Y-75778152D01*
X194251904Y-75778152D02*
X194299523Y-75682914D01*
X194299523Y-75682914D02*
X194299523Y-75635295D01*
X194299523Y-75635295D02*
X194251904Y-75540057D01*
X194251904Y-75540057D02*
X194204285Y-75492438D01*
X194204285Y-75492438D02*
X194109047Y-75444819D01*
X194109047Y-75444819D02*
X193918571Y-75444819D01*
X193918571Y-75444819D02*
X193823333Y-75492438D01*
X193823333Y-75492438D02*
X193775714Y-75540057D01*
X193775714Y-75540057D02*
X193728095Y-75635295D01*
X193728095Y-75635295D02*
X193728095Y-75682914D01*
X193728095Y-75682914D02*
X193775714Y-75778152D01*
X193775714Y-75778152D02*
X193823333Y-75825771D01*
X193823333Y-75825771D02*
X193918571Y-75873390D01*
X193918571Y-75873390D02*
X194109047Y-75873390D01*
X194109047Y-75873390D02*
X194204285Y-75921009D01*
X194204285Y-75921009D02*
X194251904Y-75968628D01*
X194251904Y-75968628D02*
X194299523Y-76063866D01*
X194299523Y-76063866D02*
X194299523Y-76254342D01*
X194299523Y-76254342D02*
X194251904Y-76349580D01*
X194251904Y-76349580D02*
X194204285Y-76397200D01*
X194204285Y-76397200D02*
X194109047Y-76444819D01*
X194109047Y-76444819D02*
X193918571Y-76444819D01*
X193918571Y-76444819D02*
X193823333Y-76397200D01*
X193823333Y-76397200D02*
X193775714Y-76349580D01*
X193775714Y-76349580D02*
X193728095Y-76254342D01*
X193728095Y-76254342D02*
X193728095Y-76063866D01*
X193728095Y-76063866D02*
X193775714Y-75968628D01*
X193775714Y-75968628D02*
X193823333Y-75921009D01*
X193823333Y-75921009D02*
X193918571Y-75873390D01*
X205812857Y-81259580D02*
X205860476Y-81307200D01*
X205860476Y-81307200D02*
X206003333Y-81354819D01*
X206003333Y-81354819D02*
X206098571Y-81354819D01*
X206098571Y-81354819D02*
X206241428Y-81307200D01*
X206241428Y-81307200D02*
X206336666Y-81211961D01*
X206336666Y-81211961D02*
X206384285Y-81116723D01*
X206384285Y-81116723D02*
X206431904Y-80926247D01*
X206431904Y-80926247D02*
X206431904Y-80783390D01*
X206431904Y-80783390D02*
X206384285Y-80592914D01*
X206384285Y-80592914D02*
X206336666Y-80497676D01*
X206336666Y-80497676D02*
X206241428Y-80402438D01*
X206241428Y-80402438D02*
X206098571Y-80354819D01*
X206098571Y-80354819D02*
X206003333Y-80354819D01*
X206003333Y-80354819D02*
X205860476Y-80402438D01*
X205860476Y-80402438D02*
X205812857Y-80450057D01*
X205431904Y-80450057D02*
X205384285Y-80402438D01*
X205384285Y-80402438D02*
X205289047Y-80354819D01*
X205289047Y-80354819D02*
X205050952Y-80354819D01*
X205050952Y-80354819D02*
X204955714Y-80402438D01*
X204955714Y-80402438D02*
X204908095Y-80450057D01*
X204908095Y-80450057D02*
X204860476Y-80545295D01*
X204860476Y-80545295D02*
X204860476Y-80640533D01*
X204860476Y-80640533D02*
X204908095Y-80783390D01*
X204908095Y-80783390D02*
X205479523Y-81354819D01*
X205479523Y-81354819D02*
X204860476Y-81354819D01*
X203908095Y-81354819D02*
X204479523Y-81354819D01*
X204193809Y-81354819D02*
X204193809Y-80354819D01*
X204193809Y-80354819D02*
X204289047Y-80497676D01*
X204289047Y-80497676D02*
X204384285Y-80592914D01*
X204384285Y-80592914D02*
X204479523Y-80640533D01*
X215826666Y-83689580D02*
X215874285Y-83737200D01*
X215874285Y-83737200D02*
X216017142Y-83784819D01*
X216017142Y-83784819D02*
X216112380Y-83784819D01*
X216112380Y-83784819D02*
X216255237Y-83737200D01*
X216255237Y-83737200D02*
X216350475Y-83641961D01*
X216350475Y-83641961D02*
X216398094Y-83546723D01*
X216398094Y-83546723D02*
X216445713Y-83356247D01*
X216445713Y-83356247D02*
X216445713Y-83213390D01*
X216445713Y-83213390D02*
X216398094Y-83022914D01*
X216398094Y-83022914D02*
X216350475Y-82927676D01*
X216350475Y-82927676D02*
X216255237Y-82832438D01*
X216255237Y-82832438D02*
X216112380Y-82784819D01*
X216112380Y-82784819D02*
X216017142Y-82784819D01*
X216017142Y-82784819D02*
X215874285Y-82832438D01*
X215874285Y-82832438D02*
X215826666Y-82880057D01*
X215350475Y-83784819D02*
X215159999Y-83784819D01*
X215159999Y-83784819D02*
X215064761Y-83737200D01*
X215064761Y-83737200D02*
X215017142Y-83689580D01*
X215017142Y-83689580D02*
X214921904Y-83546723D01*
X214921904Y-83546723D02*
X214874285Y-83356247D01*
X214874285Y-83356247D02*
X214874285Y-82975295D01*
X214874285Y-82975295D02*
X214921904Y-82880057D01*
X214921904Y-82880057D02*
X214969523Y-82832438D01*
X214969523Y-82832438D02*
X215064761Y-82784819D01*
X215064761Y-82784819D02*
X215255237Y-82784819D01*
X215255237Y-82784819D02*
X215350475Y-82832438D01*
X215350475Y-82832438D02*
X215398094Y-82880057D01*
X215398094Y-82880057D02*
X215445713Y-82975295D01*
X215445713Y-82975295D02*
X215445713Y-83213390D01*
X215445713Y-83213390D02*
X215398094Y-83308628D01*
X215398094Y-83308628D02*
X215350475Y-83356247D01*
X215350475Y-83356247D02*
X215255237Y-83403866D01*
X215255237Y-83403866D02*
X215064761Y-83403866D01*
X215064761Y-83403866D02*
X214969523Y-83356247D01*
X214969523Y-83356247D02*
X214921904Y-83308628D01*
X214921904Y-83308628D02*
X214874285Y-83213390D01*
X234946666Y-104801762D02*
X235279999Y-104325571D01*
X235518094Y-104801762D02*
X235518094Y-103801762D01*
X235518094Y-103801762D02*
X235137142Y-103801762D01*
X235137142Y-103801762D02*
X235041904Y-103849381D01*
X235041904Y-103849381D02*
X234994285Y-103897000D01*
X234994285Y-103897000D02*
X234946666Y-103992238D01*
X234946666Y-103992238D02*
X234946666Y-104135095D01*
X234946666Y-104135095D02*
X234994285Y-104230333D01*
X234994285Y-104230333D02*
X235041904Y-104277952D01*
X235041904Y-104277952D02*
X235137142Y-104325571D01*
X235137142Y-104325571D02*
X235518094Y-104325571D01*
X234041904Y-103801762D02*
X234518094Y-103801762D01*
X234518094Y-103801762D02*
X234565713Y-104277952D01*
X234565713Y-104277952D02*
X234518094Y-104230333D01*
X234518094Y-104230333D02*
X234422856Y-104182714D01*
X234422856Y-104182714D02*
X234184761Y-104182714D01*
X234184761Y-104182714D02*
X234089523Y-104230333D01*
X234089523Y-104230333D02*
X234041904Y-104277952D01*
X234041904Y-104277952D02*
X233994285Y-104373190D01*
X233994285Y-104373190D02*
X233994285Y-104611285D01*
X233994285Y-104611285D02*
X234041904Y-104706523D01*
X234041904Y-104706523D02*
X234089523Y-104754143D01*
X234089523Y-104754143D02*
X234184761Y-104801762D01*
X234184761Y-104801762D02*
X234422856Y-104801762D01*
X234422856Y-104801762D02*
X234518094Y-104754143D01*
X234518094Y-104754143D02*
X234565713Y-104706523D01*
X230419819Y-83582142D02*
X229943628Y-83248809D01*
X230419819Y-83010714D02*
X229419819Y-83010714D01*
X229419819Y-83010714D02*
X229419819Y-83391666D01*
X229419819Y-83391666D02*
X229467438Y-83486904D01*
X229467438Y-83486904D02*
X229515057Y-83534523D01*
X229515057Y-83534523D02*
X229610295Y-83582142D01*
X229610295Y-83582142D02*
X229753152Y-83582142D01*
X229753152Y-83582142D02*
X229848390Y-83534523D01*
X229848390Y-83534523D02*
X229896009Y-83486904D01*
X229896009Y-83486904D02*
X229943628Y-83391666D01*
X229943628Y-83391666D02*
X229943628Y-83010714D01*
X229419819Y-83915476D02*
X229419819Y-84534523D01*
X229419819Y-84534523D02*
X229800771Y-84201190D01*
X229800771Y-84201190D02*
X229800771Y-84344047D01*
X229800771Y-84344047D02*
X229848390Y-84439285D01*
X229848390Y-84439285D02*
X229896009Y-84486904D01*
X229896009Y-84486904D02*
X229991247Y-84534523D01*
X229991247Y-84534523D02*
X230229342Y-84534523D01*
X230229342Y-84534523D02*
X230324580Y-84486904D01*
X230324580Y-84486904D02*
X230372200Y-84439285D01*
X230372200Y-84439285D02*
X230419819Y-84344047D01*
X230419819Y-84344047D02*
X230419819Y-84058333D01*
X230419819Y-84058333D02*
X230372200Y-83963095D01*
X230372200Y-83963095D02*
X230324580Y-83915476D01*
X229515057Y-84915476D02*
X229467438Y-84963095D01*
X229467438Y-84963095D02*
X229419819Y-85058333D01*
X229419819Y-85058333D02*
X229419819Y-85296428D01*
X229419819Y-85296428D02*
X229467438Y-85391666D01*
X229467438Y-85391666D02*
X229515057Y-85439285D01*
X229515057Y-85439285D02*
X229610295Y-85486904D01*
X229610295Y-85486904D02*
X229705533Y-85486904D01*
X229705533Y-85486904D02*
X229848390Y-85439285D01*
X229848390Y-85439285D02*
X230419819Y-84867857D01*
X230419819Y-84867857D02*
X230419819Y-85486904D01*
X195622857Y-72050653D02*
X195956190Y-71574462D01*
X196194285Y-72050653D02*
X196194285Y-71050653D01*
X196194285Y-71050653D02*
X195813333Y-71050653D01*
X195813333Y-71050653D02*
X195718095Y-71098272D01*
X195718095Y-71098272D02*
X195670476Y-71145891D01*
X195670476Y-71145891D02*
X195622857Y-71241129D01*
X195622857Y-71241129D02*
X195622857Y-71383986D01*
X195622857Y-71383986D02*
X195670476Y-71479224D01*
X195670476Y-71479224D02*
X195718095Y-71526843D01*
X195718095Y-71526843D02*
X195813333Y-71574462D01*
X195813333Y-71574462D02*
X196194285Y-71574462D01*
X194765714Y-71383986D02*
X194765714Y-72050653D01*
X195003809Y-71003034D02*
X195241904Y-71717319D01*
X195241904Y-71717319D02*
X194622857Y-71717319D01*
X194337142Y-71050653D02*
X193718095Y-71050653D01*
X193718095Y-71050653D02*
X194051428Y-71431605D01*
X194051428Y-71431605D02*
X193908571Y-71431605D01*
X193908571Y-71431605D02*
X193813333Y-71479224D01*
X193813333Y-71479224D02*
X193765714Y-71526843D01*
X193765714Y-71526843D02*
X193718095Y-71622081D01*
X193718095Y-71622081D02*
X193718095Y-71860176D01*
X193718095Y-71860176D02*
X193765714Y-71955414D01*
X193765714Y-71955414D02*
X193813333Y-72003034D01*
X193813333Y-72003034D02*
X193908571Y-72050653D01*
X193908571Y-72050653D02*
X194194285Y-72050653D01*
X194194285Y-72050653D02*
X194289523Y-72003034D01*
X194289523Y-72003034D02*
X194337142Y-71955414D01*
X235469707Y-85776052D02*
X235803040Y-85299861D01*
X236041135Y-85776052D02*
X236041135Y-84776052D01*
X236041135Y-84776052D02*
X235660183Y-84776052D01*
X235660183Y-84776052D02*
X235564945Y-84823671D01*
X235564945Y-84823671D02*
X235517326Y-84871290D01*
X235517326Y-84871290D02*
X235469707Y-84966528D01*
X235469707Y-84966528D02*
X235469707Y-85109385D01*
X235469707Y-85109385D02*
X235517326Y-85204623D01*
X235517326Y-85204623D02*
X235564945Y-85252242D01*
X235564945Y-85252242D02*
X235660183Y-85299861D01*
X235660183Y-85299861D02*
X236041135Y-85299861D01*
X234612564Y-85109385D02*
X234612564Y-85776052D01*
X234850659Y-84728433D02*
X235088754Y-85442718D01*
X235088754Y-85442718D02*
X234469707Y-85442718D01*
X233660183Y-85109385D02*
X233660183Y-85776052D01*
X233898278Y-84728433D02*
X234136373Y-85442718D01*
X234136373Y-85442718D02*
X233517326Y-85442718D01*
X201819580Y-79247142D02*
X201867200Y-79199523D01*
X201867200Y-79199523D02*
X201914819Y-79056666D01*
X201914819Y-79056666D02*
X201914819Y-78961428D01*
X201914819Y-78961428D02*
X201867200Y-78818571D01*
X201867200Y-78818571D02*
X201771961Y-78723333D01*
X201771961Y-78723333D02*
X201676723Y-78675714D01*
X201676723Y-78675714D02*
X201486247Y-78628095D01*
X201486247Y-78628095D02*
X201343390Y-78628095D01*
X201343390Y-78628095D02*
X201152914Y-78675714D01*
X201152914Y-78675714D02*
X201057676Y-78723333D01*
X201057676Y-78723333D02*
X200962438Y-78818571D01*
X200962438Y-78818571D02*
X200914819Y-78961428D01*
X200914819Y-78961428D02*
X200914819Y-79056666D01*
X200914819Y-79056666D02*
X200962438Y-79199523D01*
X200962438Y-79199523D02*
X201010057Y-79247142D01*
X201010057Y-79628095D02*
X200962438Y-79675714D01*
X200962438Y-79675714D02*
X200914819Y-79770952D01*
X200914819Y-79770952D02*
X200914819Y-80009047D01*
X200914819Y-80009047D02*
X200962438Y-80104285D01*
X200962438Y-80104285D02*
X201010057Y-80151904D01*
X201010057Y-80151904D02*
X201105295Y-80199523D01*
X201105295Y-80199523D02*
X201200533Y-80199523D01*
X201200533Y-80199523D02*
X201343390Y-80151904D01*
X201343390Y-80151904D02*
X201914819Y-79580476D01*
X201914819Y-79580476D02*
X201914819Y-80199523D01*
X201010057Y-80580476D02*
X200962438Y-80628095D01*
X200962438Y-80628095D02*
X200914819Y-80723333D01*
X200914819Y-80723333D02*
X200914819Y-80961428D01*
X200914819Y-80961428D02*
X200962438Y-81056666D01*
X200962438Y-81056666D02*
X201010057Y-81104285D01*
X201010057Y-81104285D02*
X201105295Y-81151904D01*
X201105295Y-81151904D02*
X201200533Y-81151904D01*
X201200533Y-81151904D02*
X201343390Y-81104285D01*
X201343390Y-81104285D02*
X201914819Y-80532857D01*
X201914819Y-80532857D02*
X201914819Y-81151904D01*
X235422857Y-109021552D02*
X235756190Y-108545361D01*
X235994285Y-109021552D02*
X235994285Y-108021552D01*
X235994285Y-108021552D02*
X235613333Y-108021552D01*
X235613333Y-108021552D02*
X235518095Y-108069171D01*
X235518095Y-108069171D02*
X235470476Y-108116790D01*
X235470476Y-108116790D02*
X235422857Y-108212028D01*
X235422857Y-108212028D02*
X235422857Y-108354885D01*
X235422857Y-108354885D02*
X235470476Y-108450123D01*
X235470476Y-108450123D02*
X235518095Y-108497742D01*
X235518095Y-108497742D02*
X235613333Y-108545361D01*
X235613333Y-108545361D02*
X235994285Y-108545361D01*
X234470476Y-109021552D02*
X235041904Y-109021552D01*
X234756190Y-109021552D02*
X234756190Y-108021552D01*
X234756190Y-108021552D02*
X234851428Y-108164409D01*
X234851428Y-108164409D02*
X234946666Y-108259647D01*
X234946666Y-108259647D02*
X235041904Y-108307266D01*
X233994285Y-109021552D02*
X233803809Y-109021552D01*
X233803809Y-109021552D02*
X233708571Y-108973933D01*
X233708571Y-108973933D02*
X233660952Y-108926313D01*
X233660952Y-108926313D02*
X233565714Y-108783456D01*
X233565714Y-108783456D02*
X233518095Y-108592980D01*
X233518095Y-108592980D02*
X233518095Y-108212028D01*
X233518095Y-108212028D02*
X233565714Y-108116790D01*
X233565714Y-108116790D02*
X233613333Y-108069171D01*
X233613333Y-108069171D02*
X233708571Y-108021552D01*
X233708571Y-108021552D02*
X233899047Y-108021552D01*
X233899047Y-108021552D02*
X233994285Y-108069171D01*
X233994285Y-108069171D02*
X234041904Y-108116790D01*
X234041904Y-108116790D02*
X234089523Y-108212028D01*
X234089523Y-108212028D02*
X234089523Y-108450123D01*
X234089523Y-108450123D02*
X234041904Y-108545361D01*
X234041904Y-108545361D02*
X233994285Y-108592980D01*
X233994285Y-108592980D02*
X233899047Y-108640599D01*
X233899047Y-108640599D02*
X233708571Y-108640599D01*
X233708571Y-108640599D02*
X233613333Y-108592980D01*
X233613333Y-108592980D02*
X233565714Y-108545361D01*
X233565714Y-108545361D02*
X233518095Y-108450123D01*
X234946666Y-103441972D02*
X235279999Y-102965781D01*
X235518094Y-103441972D02*
X235518094Y-102441972D01*
X235518094Y-102441972D02*
X235137142Y-102441972D01*
X235137142Y-102441972D02*
X235041904Y-102489591D01*
X235041904Y-102489591D02*
X234994285Y-102537210D01*
X234994285Y-102537210D02*
X234946666Y-102632448D01*
X234946666Y-102632448D02*
X234946666Y-102775305D01*
X234946666Y-102775305D02*
X234994285Y-102870543D01*
X234994285Y-102870543D02*
X235041904Y-102918162D01*
X235041904Y-102918162D02*
X235137142Y-102965781D01*
X235137142Y-102965781D02*
X235518094Y-102965781D01*
X234089523Y-102441972D02*
X234279999Y-102441972D01*
X234279999Y-102441972D02*
X234375237Y-102489591D01*
X234375237Y-102489591D02*
X234422856Y-102537210D01*
X234422856Y-102537210D02*
X234518094Y-102680067D01*
X234518094Y-102680067D02*
X234565713Y-102870543D01*
X234565713Y-102870543D02*
X234565713Y-103251495D01*
X234565713Y-103251495D02*
X234518094Y-103346733D01*
X234518094Y-103346733D02*
X234470475Y-103394353D01*
X234470475Y-103394353D02*
X234375237Y-103441972D01*
X234375237Y-103441972D02*
X234184761Y-103441972D01*
X234184761Y-103441972D02*
X234089523Y-103394353D01*
X234089523Y-103394353D02*
X234041904Y-103346733D01*
X234041904Y-103346733D02*
X233994285Y-103251495D01*
X233994285Y-103251495D02*
X233994285Y-103013400D01*
X233994285Y-103013400D02*
X234041904Y-102918162D01*
X234041904Y-102918162D02*
X234089523Y-102870543D01*
X234089523Y-102870543D02*
X234184761Y-102822924D01*
X234184761Y-102822924D02*
X234375237Y-102822924D01*
X234375237Y-102822924D02*
X234470475Y-102870543D01*
X234470475Y-102870543D02*
X234518094Y-102918162D01*
X234518094Y-102918162D02*
X234565713Y-103013400D01*
X215826666Y-89544819D02*
X216159999Y-89068628D01*
X216398094Y-89544819D02*
X216398094Y-88544819D01*
X216398094Y-88544819D02*
X216017142Y-88544819D01*
X216017142Y-88544819D02*
X215921904Y-88592438D01*
X215921904Y-88592438D02*
X215874285Y-88640057D01*
X215874285Y-88640057D02*
X215826666Y-88735295D01*
X215826666Y-88735295D02*
X215826666Y-88878152D01*
X215826666Y-88878152D02*
X215874285Y-88973390D01*
X215874285Y-88973390D02*
X215921904Y-89021009D01*
X215921904Y-89021009D02*
X216017142Y-89068628D01*
X216017142Y-89068628D02*
X216398094Y-89068628D01*
X215493332Y-88544819D02*
X214874285Y-88544819D01*
X214874285Y-88544819D02*
X215207618Y-88925771D01*
X215207618Y-88925771D02*
X215064761Y-88925771D01*
X215064761Y-88925771D02*
X214969523Y-88973390D01*
X214969523Y-88973390D02*
X214921904Y-89021009D01*
X214921904Y-89021009D02*
X214874285Y-89116247D01*
X214874285Y-89116247D02*
X214874285Y-89354342D01*
X214874285Y-89354342D02*
X214921904Y-89449580D01*
X214921904Y-89449580D02*
X214969523Y-89497200D01*
X214969523Y-89497200D02*
X215064761Y-89544819D01*
X215064761Y-89544819D02*
X215350475Y-89544819D01*
X215350475Y-89544819D02*
X215445713Y-89497200D01*
X215445713Y-89497200D02*
X215493332Y-89449580D01*
X199419580Y-89637142D02*
X199467200Y-89589523D01*
X199467200Y-89589523D02*
X199514819Y-89446666D01*
X199514819Y-89446666D02*
X199514819Y-89351428D01*
X199514819Y-89351428D02*
X199467200Y-89208571D01*
X199467200Y-89208571D02*
X199371961Y-89113333D01*
X199371961Y-89113333D02*
X199276723Y-89065714D01*
X199276723Y-89065714D02*
X199086247Y-89018095D01*
X199086247Y-89018095D02*
X198943390Y-89018095D01*
X198943390Y-89018095D02*
X198752914Y-89065714D01*
X198752914Y-89065714D02*
X198657676Y-89113333D01*
X198657676Y-89113333D02*
X198562438Y-89208571D01*
X198562438Y-89208571D02*
X198514819Y-89351428D01*
X198514819Y-89351428D02*
X198514819Y-89446666D01*
X198514819Y-89446666D02*
X198562438Y-89589523D01*
X198562438Y-89589523D02*
X198610057Y-89637142D01*
X199514819Y-90589523D02*
X199514819Y-90018095D01*
X199514819Y-90303809D02*
X198514819Y-90303809D01*
X198514819Y-90303809D02*
X198657676Y-90208571D01*
X198657676Y-90208571D02*
X198752914Y-90113333D01*
X198752914Y-90113333D02*
X198800533Y-90018095D01*
X199514819Y-91541904D02*
X199514819Y-90970476D01*
X199514819Y-91256190D02*
X198514819Y-91256190D01*
X198514819Y-91256190D02*
X198657676Y-91160952D01*
X198657676Y-91160952D02*
X198752914Y-91065714D01*
X198752914Y-91065714D02*
X198800533Y-90970476D01*
X203199580Y-79242142D02*
X203247200Y-79194523D01*
X203247200Y-79194523D02*
X203294819Y-79051666D01*
X203294819Y-79051666D02*
X203294819Y-78956428D01*
X203294819Y-78956428D02*
X203247200Y-78813571D01*
X203247200Y-78813571D02*
X203151961Y-78718333D01*
X203151961Y-78718333D02*
X203056723Y-78670714D01*
X203056723Y-78670714D02*
X202866247Y-78623095D01*
X202866247Y-78623095D02*
X202723390Y-78623095D01*
X202723390Y-78623095D02*
X202532914Y-78670714D01*
X202532914Y-78670714D02*
X202437676Y-78718333D01*
X202437676Y-78718333D02*
X202342438Y-78813571D01*
X202342438Y-78813571D02*
X202294819Y-78956428D01*
X202294819Y-78956428D02*
X202294819Y-79051666D01*
X202294819Y-79051666D02*
X202342438Y-79194523D01*
X202342438Y-79194523D02*
X202390057Y-79242142D01*
X203294819Y-80194523D02*
X203294819Y-79623095D01*
X203294819Y-79908809D02*
X202294819Y-79908809D01*
X202294819Y-79908809D02*
X202437676Y-79813571D01*
X202437676Y-79813571D02*
X202532914Y-79718333D01*
X202532914Y-79718333D02*
X202580533Y-79623095D01*
X202294819Y-80527857D02*
X202294819Y-81146904D01*
X202294819Y-81146904D02*
X202675771Y-80813571D01*
X202675771Y-80813571D02*
X202675771Y-80956428D01*
X202675771Y-80956428D02*
X202723390Y-81051666D01*
X202723390Y-81051666D02*
X202771009Y-81099285D01*
X202771009Y-81099285D02*
X202866247Y-81146904D01*
X202866247Y-81146904D02*
X203104342Y-81146904D01*
X203104342Y-81146904D02*
X203199580Y-81099285D01*
X203199580Y-81099285D02*
X203247200Y-81051666D01*
X203247200Y-81051666D02*
X203294819Y-80956428D01*
X203294819Y-80956428D02*
X203294819Y-80670714D01*
X203294819Y-80670714D02*
X203247200Y-80575476D01*
X203247200Y-80575476D02*
X203199580Y-80527857D01*
X254284819Y-60357142D02*
X253808628Y-60023809D01*
X254284819Y-59785714D02*
X253284819Y-59785714D01*
X253284819Y-59785714D02*
X253284819Y-60166666D01*
X253284819Y-60166666D02*
X253332438Y-60261904D01*
X253332438Y-60261904D02*
X253380057Y-60309523D01*
X253380057Y-60309523D02*
X253475295Y-60357142D01*
X253475295Y-60357142D02*
X253618152Y-60357142D01*
X253618152Y-60357142D02*
X253713390Y-60309523D01*
X253713390Y-60309523D02*
X253761009Y-60261904D01*
X253761009Y-60261904D02*
X253808628Y-60166666D01*
X253808628Y-60166666D02*
X253808628Y-59785714D01*
X253284819Y-61261904D02*
X253284819Y-60785714D01*
X253284819Y-60785714D02*
X253761009Y-60738095D01*
X253761009Y-60738095D02*
X253713390Y-60785714D01*
X253713390Y-60785714D02*
X253665771Y-60880952D01*
X253665771Y-60880952D02*
X253665771Y-61119047D01*
X253665771Y-61119047D02*
X253713390Y-61214285D01*
X253713390Y-61214285D02*
X253761009Y-61261904D01*
X253761009Y-61261904D02*
X253856247Y-61309523D01*
X253856247Y-61309523D02*
X254094342Y-61309523D01*
X254094342Y-61309523D02*
X254189580Y-61261904D01*
X254189580Y-61261904D02*
X254237200Y-61214285D01*
X254237200Y-61214285D02*
X254284819Y-61119047D01*
X254284819Y-61119047D02*
X254284819Y-60880952D01*
X254284819Y-60880952D02*
X254237200Y-60785714D01*
X254237200Y-60785714D02*
X254189580Y-60738095D01*
X253284819Y-61928571D02*
X253284819Y-62023809D01*
X253284819Y-62023809D02*
X253332438Y-62119047D01*
X253332438Y-62119047D02*
X253380057Y-62166666D01*
X253380057Y-62166666D02*
X253475295Y-62214285D01*
X253475295Y-62214285D02*
X253665771Y-62261904D01*
X253665771Y-62261904D02*
X253903866Y-62261904D01*
X253903866Y-62261904D02*
X254094342Y-62214285D01*
X254094342Y-62214285D02*
X254189580Y-62166666D01*
X254189580Y-62166666D02*
X254237200Y-62119047D01*
X254237200Y-62119047D02*
X254284819Y-62023809D01*
X254284819Y-62023809D02*
X254284819Y-61928571D01*
X254284819Y-61928571D02*
X254237200Y-61833333D01*
X254237200Y-61833333D02*
X254189580Y-61785714D01*
X254189580Y-61785714D02*
X254094342Y-61738095D01*
X254094342Y-61738095D02*
X253903866Y-61690476D01*
X253903866Y-61690476D02*
X253665771Y-61690476D01*
X253665771Y-61690476D02*
X253475295Y-61738095D01*
X253475295Y-61738095D02*
X253380057Y-61785714D01*
X253380057Y-61785714D02*
X253332438Y-61833333D01*
X253332438Y-61833333D02*
X253284819Y-61928571D01*
X210111555Y-89632142D02*
X210159175Y-89584523D01*
X210159175Y-89584523D02*
X210206794Y-89441666D01*
X210206794Y-89441666D02*
X210206794Y-89346428D01*
X210206794Y-89346428D02*
X210159175Y-89203571D01*
X210159175Y-89203571D02*
X210063936Y-89108333D01*
X210063936Y-89108333D02*
X209968698Y-89060714D01*
X209968698Y-89060714D02*
X209778222Y-89013095D01*
X209778222Y-89013095D02*
X209635365Y-89013095D01*
X209635365Y-89013095D02*
X209444889Y-89060714D01*
X209444889Y-89060714D02*
X209349651Y-89108333D01*
X209349651Y-89108333D02*
X209254413Y-89203571D01*
X209254413Y-89203571D02*
X209206794Y-89346428D01*
X209206794Y-89346428D02*
X209206794Y-89441666D01*
X209206794Y-89441666D02*
X209254413Y-89584523D01*
X209254413Y-89584523D02*
X209302032Y-89632142D01*
X210206794Y-90584523D02*
X210206794Y-90013095D01*
X210206794Y-90298809D02*
X209206794Y-90298809D01*
X209206794Y-90298809D02*
X209349651Y-90203571D01*
X209349651Y-90203571D02*
X209444889Y-90108333D01*
X209444889Y-90108333D02*
X209492508Y-90013095D01*
X210206794Y-91060714D02*
X210206794Y-91251190D01*
X210206794Y-91251190D02*
X210159175Y-91346428D01*
X210159175Y-91346428D02*
X210111555Y-91394047D01*
X210111555Y-91394047D02*
X209968698Y-91489285D01*
X209968698Y-91489285D02*
X209778222Y-91536904D01*
X209778222Y-91536904D02*
X209397270Y-91536904D01*
X209397270Y-91536904D02*
X209302032Y-91489285D01*
X209302032Y-91489285D02*
X209254413Y-91441666D01*
X209254413Y-91441666D02*
X209206794Y-91346428D01*
X209206794Y-91346428D02*
X209206794Y-91155952D01*
X209206794Y-91155952D02*
X209254413Y-91060714D01*
X209254413Y-91060714D02*
X209302032Y-91013095D01*
X209302032Y-91013095D02*
X209397270Y-90965476D01*
X209397270Y-90965476D02*
X209635365Y-90965476D01*
X209635365Y-90965476D02*
X209730603Y-91013095D01*
X209730603Y-91013095D02*
X209778222Y-91060714D01*
X209778222Y-91060714D02*
X209825841Y-91155952D01*
X209825841Y-91155952D02*
X209825841Y-91346428D01*
X209825841Y-91346428D02*
X209778222Y-91441666D01*
X209778222Y-91441666D02*
X209730603Y-91489285D01*
X209730603Y-91489285D02*
X209635365Y-91536904D01*
X235469707Y-88439580D02*
X235517326Y-88487200D01*
X235517326Y-88487200D02*
X235660183Y-88534819D01*
X235660183Y-88534819D02*
X235755421Y-88534819D01*
X235755421Y-88534819D02*
X235898278Y-88487200D01*
X235898278Y-88487200D02*
X235993516Y-88391961D01*
X235993516Y-88391961D02*
X236041135Y-88296723D01*
X236041135Y-88296723D02*
X236088754Y-88106247D01*
X236088754Y-88106247D02*
X236088754Y-87963390D01*
X236088754Y-87963390D02*
X236041135Y-87772914D01*
X236041135Y-87772914D02*
X235993516Y-87677676D01*
X235993516Y-87677676D02*
X235898278Y-87582438D01*
X235898278Y-87582438D02*
X235755421Y-87534819D01*
X235755421Y-87534819D02*
X235660183Y-87534819D01*
X235660183Y-87534819D02*
X235517326Y-87582438D01*
X235517326Y-87582438D02*
X235469707Y-87630057D01*
X235136373Y-87534819D02*
X234469707Y-87534819D01*
X234469707Y-87534819D02*
X234898278Y-88534819D01*
X233612564Y-87534819D02*
X234088754Y-87534819D01*
X234088754Y-87534819D02*
X234136373Y-88011009D01*
X234136373Y-88011009D02*
X234088754Y-87963390D01*
X234088754Y-87963390D02*
X233993516Y-87915771D01*
X233993516Y-87915771D02*
X233755421Y-87915771D01*
X233755421Y-87915771D02*
X233660183Y-87963390D01*
X233660183Y-87963390D02*
X233612564Y-88011009D01*
X233612564Y-88011009D02*
X233564945Y-88106247D01*
X233564945Y-88106247D02*
X233564945Y-88344342D01*
X233564945Y-88344342D02*
X233612564Y-88439580D01*
X233612564Y-88439580D02*
X233660183Y-88487200D01*
X233660183Y-88487200D02*
X233755421Y-88534819D01*
X233755421Y-88534819D02*
X233993516Y-88534819D01*
X233993516Y-88534819D02*
X234088754Y-88487200D01*
X234088754Y-88487200D02*
X234136373Y-88439580D01*
X195622857Y-70508747D02*
X195670476Y-70556367D01*
X195670476Y-70556367D02*
X195813333Y-70603986D01*
X195813333Y-70603986D02*
X195908571Y-70603986D01*
X195908571Y-70603986D02*
X196051428Y-70556367D01*
X196051428Y-70556367D02*
X196146666Y-70461128D01*
X196146666Y-70461128D02*
X196194285Y-70365890D01*
X196194285Y-70365890D02*
X196241904Y-70175414D01*
X196241904Y-70175414D02*
X196241904Y-70032557D01*
X196241904Y-70032557D02*
X196194285Y-69842081D01*
X196194285Y-69842081D02*
X196146666Y-69746843D01*
X196146666Y-69746843D02*
X196051428Y-69651605D01*
X196051428Y-69651605D02*
X195908571Y-69603986D01*
X195908571Y-69603986D02*
X195813333Y-69603986D01*
X195813333Y-69603986D02*
X195670476Y-69651605D01*
X195670476Y-69651605D02*
X195622857Y-69699224D01*
X194718095Y-69603986D02*
X195194285Y-69603986D01*
X195194285Y-69603986D02*
X195241904Y-70080176D01*
X195241904Y-70080176D02*
X195194285Y-70032557D01*
X195194285Y-70032557D02*
X195099047Y-69984938D01*
X195099047Y-69984938D02*
X194860952Y-69984938D01*
X194860952Y-69984938D02*
X194765714Y-70032557D01*
X194765714Y-70032557D02*
X194718095Y-70080176D01*
X194718095Y-70080176D02*
X194670476Y-70175414D01*
X194670476Y-70175414D02*
X194670476Y-70413509D01*
X194670476Y-70413509D02*
X194718095Y-70508747D01*
X194718095Y-70508747D02*
X194765714Y-70556367D01*
X194765714Y-70556367D02*
X194860952Y-70603986D01*
X194860952Y-70603986D02*
X195099047Y-70603986D01*
X195099047Y-70603986D02*
X195194285Y-70556367D01*
X195194285Y-70556367D02*
X195241904Y-70508747D01*
X193765714Y-69603986D02*
X194241904Y-69603986D01*
X194241904Y-69603986D02*
X194289523Y-70080176D01*
X194289523Y-70080176D02*
X194241904Y-70032557D01*
X194241904Y-70032557D02*
X194146666Y-69984938D01*
X194146666Y-69984938D02*
X193908571Y-69984938D01*
X193908571Y-69984938D02*
X193813333Y-70032557D01*
X193813333Y-70032557D02*
X193765714Y-70080176D01*
X193765714Y-70080176D02*
X193718095Y-70175414D01*
X193718095Y-70175414D02*
X193718095Y-70413509D01*
X193718095Y-70413509D02*
X193765714Y-70508747D01*
X193765714Y-70508747D02*
X193813333Y-70556367D01*
X193813333Y-70556367D02*
X193908571Y-70603986D01*
X193908571Y-70603986D02*
X194146666Y-70603986D01*
X194146666Y-70603986D02*
X194241904Y-70556367D01*
X194241904Y-70556367D02*
X194289523Y-70508747D01*
X190792857Y-73499580D02*
X190840476Y-73547200D01*
X190840476Y-73547200D02*
X190983333Y-73594819D01*
X190983333Y-73594819D02*
X191078571Y-73594819D01*
X191078571Y-73594819D02*
X191221428Y-73547200D01*
X191221428Y-73547200D02*
X191316666Y-73451961D01*
X191316666Y-73451961D02*
X191364285Y-73356723D01*
X191364285Y-73356723D02*
X191411904Y-73166247D01*
X191411904Y-73166247D02*
X191411904Y-73023390D01*
X191411904Y-73023390D02*
X191364285Y-72832914D01*
X191364285Y-72832914D02*
X191316666Y-72737676D01*
X191316666Y-72737676D02*
X191221428Y-72642438D01*
X191221428Y-72642438D02*
X191078571Y-72594819D01*
X191078571Y-72594819D02*
X190983333Y-72594819D01*
X190983333Y-72594819D02*
X190840476Y-72642438D01*
X190840476Y-72642438D02*
X190792857Y-72690057D01*
X189888095Y-72594819D02*
X190364285Y-72594819D01*
X190364285Y-72594819D02*
X190411904Y-73071009D01*
X190411904Y-73071009D02*
X190364285Y-73023390D01*
X190364285Y-73023390D02*
X190269047Y-72975771D01*
X190269047Y-72975771D02*
X190030952Y-72975771D01*
X190030952Y-72975771D02*
X189935714Y-73023390D01*
X189935714Y-73023390D02*
X189888095Y-73071009D01*
X189888095Y-73071009D02*
X189840476Y-73166247D01*
X189840476Y-73166247D02*
X189840476Y-73404342D01*
X189840476Y-73404342D02*
X189888095Y-73499580D01*
X189888095Y-73499580D02*
X189935714Y-73547200D01*
X189935714Y-73547200D02*
X190030952Y-73594819D01*
X190030952Y-73594819D02*
X190269047Y-73594819D01*
X190269047Y-73594819D02*
X190364285Y-73547200D01*
X190364285Y-73547200D02*
X190411904Y-73499580D01*
X188983333Y-72594819D02*
X189173809Y-72594819D01*
X189173809Y-72594819D02*
X189269047Y-72642438D01*
X189269047Y-72642438D02*
X189316666Y-72690057D01*
X189316666Y-72690057D02*
X189411904Y-72832914D01*
X189411904Y-72832914D02*
X189459523Y-73023390D01*
X189459523Y-73023390D02*
X189459523Y-73404342D01*
X189459523Y-73404342D02*
X189411904Y-73499580D01*
X189411904Y-73499580D02*
X189364285Y-73547200D01*
X189364285Y-73547200D02*
X189269047Y-73594819D01*
X189269047Y-73594819D02*
X189078571Y-73594819D01*
X189078571Y-73594819D02*
X188983333Y-73547200D01*
X188983333Y-73547200D02*
X188935714Y-73499580D01*
X188935714Y-73499580D02*
X188888095Y-73404342D01*
X188888095Y-73404342D02*
X188888095Y-73166247D01*
X188888095Y-73166247D02*
X188935714Y-73071009D01*
X188935714Y-73071009D02*
X188983333Y-73023390D01*
X188983333Y-73023390D02*
X189078571Y-72975771D01*
X189078571Y-72975771D02*
X189269047Y-72975771D01*
X189269047Y-72975771D02*
X189364285Y-73023390D01*
X189364285Y-73023390D02*
X189411904Y-73071009D01*
X189411904Y-73071009D02*
X189459523Y-73166247D01*
X180189523Y-62824819D02*
X180189523Y-63539104D01*
X180189523Y-63539104D02*
X180237142Y-63681961D01*
X180237142Y-63681961D02*
X180332380Y-63777200D01*
X180332380Y-63777200D02*
X180475237Y-63824819D01*
X180475237Y-63824819D02*
X180570475Y-63824819D01*
X179189523Y-63824819D02*
X179760951Y-63824819D01*
X179475237Y-63824819D02*
X179475237Y-62824819D01*
X179475237Y-62824819D02*
X179570475Y-62967676D01*
X179570475Y-62967676D02*
X179665713Y-63062914D01*
X179665713Y-63062914D02*
X179760951Y-63110533D01*
X178332380Y-62824819D02*
X178522856Y-62824819D01*
X178522856Y-62824819D02*
X178618094Y-62872438D01*
X178618094Y-62872438D02*
X178665713Y-62920057D01*
X178665713Y-62920057D02*
X178760951Y-63062914D01*
X178760951Y-63062914D02*
X178808570Y-63253390D01*
X178808570Y-63253390D02*
X178808570Y-63634342D01*
X178808570Y-63634342D02*
X178760951Y-63729580D01*
X178760951Y-63729580D02*
X178713332Y-63777200D01*
X178713332Y-63777200D02*
X178618094Y-63824819D01*
X178618094Y-63824819D02*
X178427618Y-63824819D01*
X178427618Y-63824819D02*
X178332380Y-63777200D01*
X178332380Y-63777200D02*
X178284761Y-63729580D01*
X178284761Y-63729580D02*
X178237142Y-63634342D01*
X178237142Y-63634342D02*
X178237142Y-63396247D01*
X178237142Y-63396247D02*
X178284761Y-63301009D01*
X178284761Y-63301009D02*
X178332380Y-63253390D01*
X178332380Y-63253390D02*
X178427618Y-63205771D01*
X178427618Y-63205771D02*
X178618094Y-63205771D01*
X178618094Y-63205771D02*
X178713332Y-63253390D01*
X178713332Y-63253390D02*
X178760951Y-63301009D01*
X178760951Y-63301009D02*
X178808570Y-63396247D01*
X198384819Y-98822142D02*
X197908628Y-98488809D01*
X198384819Y-98250714D02*
X197384819Y-98250714D01*
X197384819Y-98250714D02*
X197384819Y-98631666D01*
X197384819Y-98631666D02*
X197432438Y-98726904D01*
X197432438Y-98726904D02*
X197480057Y-98774523D01*
X197480057Y-98774523D02*
X197575295Y-98822142D01*
X197575295Y-98822142D02*
X197718152Y-98822142D01*
X197718152Y-98822142D02*
X197813390Y-98774523D01*
X197813390Y-98774523D02*
X197861009Y-98726904D01*
X197861009Y-98726904D02*
X197908628Y-98631666D01*
X197908628Y-98631666D02*
X197908628Y-98250714D01*
X198384819Y-99774523D02*
X198384819Y-99203095D01*
X198384819Y-99488809D02*
X197384819Y-99488809D01*
X197384819Y-99488809D02*
X197527676Y-99393571D01*
X197527676Y-99393571D02*
X197622914Y-99298333D01*
X197622914Y-99298333D02*
X197670533Y-99203095D01*
X197384819Y-100107857D02*
X197384819Y-100774523D01*
X197384819Y-100774523D02*
X198384819Y-100345952D01*
X229671430Y-70682142D02*
X229719050Y-70634523D01*
X229719050Y-70634523D02*
X229766669Y-70491666D01*
X229766669Y-70491666D02*
X229766669Y-70396428D01*
X229766669Y-70396428D02*
X229719050Y-70253571D01*
X229719050Y-70253571D02*
X229623811Y-70158333D01*
X229623811Y-70158333D02*
X229528573Y-70110714D01*
X229528573Y-70110714D02*
X229338097Y-70063095D01*
X229338097Y-70063095D02*
X229195240Y-70063095D01*
X229195240Y-70063095D02*
X229004764Y-70110714D01*
X229004764Y-70110714D02*
X228909526Y-70158333D01*
X228909526Y-70158333D02*
X228814288Y-70253571D01*
X228814288Y-70253571D02*
X228766669Y-70396428D01*
X228766669Y-70396428D02*
X228766669Y-70491666D01*
X228766669Y-70491666D02*
X228814288Y-70634523D01*
X228814288Y-70634523D02*
X228861907Y-70682142D01*
X229100002Y-71539285D02*
X229766669Y-71539285D01*
X228719050Y-71301190D02*
X229433335Y-71063095D01*
X229433335Y-71063095D02*
X229433335Y-71682142D01*
X229195240Y-72205952D02*
X229147621Y-72110714D01*
X229147621Y-72110714D02*
X229100002Y-72063095D01*
X229100002Y-72063095D02*
X229004764Y-72015476D01*
X229004764Y-72015476D02*
X228957145Y-72015476D01*
X228957145Y-72015476D02*
X228861907Y-72063095D01*
X228861907Y-72063095D02*
X228814288Y-72110714D01*
X228814288Y-72110714D02*
X228766669Y-72205952D01*
X228766669Y-72205952D02*
X228766669Y-72396428D01*
X228766669Y-72396428D02*
X228814288Y-72491666D01*
X228814288Y-72491666D02*
X228861907Y-72539285D01*
X228861907Y-72539285D02*
X228957145Y-72586904D01*
X228957145Y-72586904D02*
X229004764Y-72586904D01*
X229004764Y-72586904D02*
X229100002Y-72539285D01*
X229100002Y-72539285D02*
X229147621Y-72491666D01*
X229147621Y-72491666D02*
X229195240Y-72396428D01*
X229195240Y-72396428D02*
X229195240Y-72205952D01*
X229195240Y-72205952D02*
X229242859Y-72110714D01*
X229242859Y-72110714D02*
X229290478Y-72063095D01*
X229290478Y-72063095D02*
X229385716Y-72015476D01*
X229385716Y-72015476D02*
X229576192Y-72015476D01*
X229576192Y-72015476D02*
X229671430Y-72063095D01*
X229671430Y-72063095D02*
X229719050Y-72110714D01*
X229719050Y-72110714D02*
X229766669Y-72205952D01*
X229766669Y-72205952D02*
X229766669Y-72396428D01*
X229766669Y-72396428D02*
X229719050Y-72491666D01*
X229719050Y-72491666D02*
X229671430Y-72539285D01*
X229671430Y-72539285D02*
X229576192Y-72586904D01*
X229576192Y-72586904D02*
X229385716Y-72586904D01*
X229385716Y-72586904D02*
X229290478Y-72539285D01*
X229290478Y-72539285D02*
X229242859Y-72491666D01*
X229242859Y-72491666D02*
X229195240Y-72396428D01*
X190792857Y-76519580D02*
X190840476Y-76567200D01*
X190840476Y-76567200D02*
X190983333Y-76614819D01*
X190983333Y-76614819D02*
X191078571Y-76614819D01*
X191078571Y-76614819D02*
X191221428Y-76567200D01*
X191221428Y-76567200D02*
X191316666Y-76471961D01*
X191316666Y-76471961D02*
X191364285Y-76376723D01*
X191364285Y-76376723D02*
X191411904Y-76186247D01*
X191411904Y-76186247D02*
X191411904Y-76043390D01*
X191411904Y-76043390D02*
X191364285Y-75852914D01*
X191364285Y-75852914D02*
X191316666Y-75757676D01*
X191316666Y-75757676D02*
X191221428Y-75662438D01*
X191221428Y-75662438D02*
X191078571Y-75614819D01*
X191078571Y-75614819D02*
X190983333Y-75614819D01*
X190983333Y-75614819D02*
X190840476Y-75662438D01*
X190840476Y-75662438D02*
X190792857Y-75710057D01*
X189888095Y-75614819D02*
X190364285Y-75614819D01*
X190364285Y-75614819D02*
X190411904Y-76091009D01*
X190411904Y-76091009D02*
X190364285Y-76043390D01*
X190364285Y-76043390D02*
X190269047Y-75995771D01*
X190269047Y-75995771D02*
X190030952Y-75995771D01*
X190030952Y-75995771D02*
X189935714Y-76043390D01*
X189935714Y-76043390D02*
X189888095Y-76091009D01*
X189888095Y-76091009D02*
X189840476Y-76186247D01*
X189840476Y-76186247D02*
X189840476Y-76424342D01*
X189840476Y-76424342D02*
X189888095Y-76519580D01*
X189888095Y-76519580D02*
X189935714Y-76567200D01*
X189935714Y-76567200D02*
X190030952Y-76614819D01*
X190030952Y-76614819D02*
X190269047Y-76614819D01*
X190269047Y-76614819D02*
X190364285Y-76567200D01*
X190364285Y-76567200D02*
X190411904Y-76519580D01*
X189507142Y-75614819D02*
X188840476Y-75614819D01*
X188840476Y-75614819D02*
X189269047Y-76614819D01*
X227804580Y-70757142D02*
X227852200Y-70709523D01*
X227852200Y-70709523D02*
X227899819Y-70566666D01*
X227899819Y-70566666D02*
X227899819Y-70471428D01*
X227899819Y-70471428D02*
X227852200Y-70328571D01*
X227852200Y-70328571D02*
X227756961Y-70233333D01*
X227756961Y-70233333D02*
X227661723Y-70185714D01*
X227661723Y-70185714D02*
X227471247Y-70138095D01*
X227471247Y-70138095D02*
X227328390Y-70138095D01*
X227328390Y-70138095D02*
X227137914Y-70185714D01*
X227137914Y-70185714D02*
X227042676Y-70233333D01*
X227042676Y-70233333D02*
X226947438Y-70328571D01*
X226947438Y-70328571D02*
X226899819Y-70471428D01*
X226899819Y-70471428D02*
X226899819Y-70566666D01*
X226899819Y-70566666D02*
X226947438Y-70709523D01*
X226947438Y-70709523D02*
X226995057Y-70757142D01*
X226899819Y-71090476D02*
X226899819Y-71757142D01*
X226899819Y-71757142D02*
X227899819Y-71328571D01*
X226899819Y-72042857D02*
X226899819Y-72661904D01*
X226899819Y-72661904D02*
X227280771Y-72328571D01*
X227280771Y-72328571D02*
X227280771Y-72471428D01*
X227280771Y-72471428D02*
X227328390Y-72566666D01*
X227328390Y-72566666D02*
X227376009Y-72614285D01*
X227376009Y-72614285D02*
X227471247Y-72661904D01*
X227471247Y-72661904D02*
X227709342Y-72661904D01*
X227709342Y-72661904D02*
X227804580Y-72614285D01*
X227804580Y-72614285D02*
X227852200Y-72566666D01*
X227852200Y-72566666D02*
X227899819Y-72471428D01*
X227899819Y-72471428D02*
X227899819Y-72185714D01*
X227899819Y-72185714D02*
X227852200Y-72090476D01*
X227852200Y-72090476D02*
X227804580Y-72042857D01*
X215826666Y-85234819D02*
X216159999Y-84758628D01*
X216398094Y-85234819D02*
X216398094Y-84234819D01*
X216398094Y-84234819D02*
X216017142Y-84234819D01*
X216017142Y-84234819D02*
X215921904Y-84282438D01*
X215921904Y-84282438D02*
X215874285Y-84330057D01*
X215874285Y-84330057D02*
X215826666Y-84425295D01*
X215826666Y-84425295D02*
X215826666Y-84568152D01*
X215826666Y-84568152D02*
X215874285Y-84663390D01*
X215874285Y-84663390D02*
X215921904Y-84711009D01*
X215921904Y-84711009D02*
X216017142Y-84758628D01*
X216017142Y-84758628D02*
X216398094Y-84758628D01*
X214969523Y-84568152D02*
X214969523Y-85234819D01*
X215207618Y-84187200D02*
X215445713Y-84901485D01*
X215445713Y-84901485D02*
X214826666Y-84901485D01*
X195632857Y-75024819D02*
X195966190Y-74548628D01*
X196204285Y-75024819D02*
X196204285Y-74024819D01*
X196204285Y-74024819D02*
X195823333Y-74024819D01*
X195823333Y-74024819D02*
X195728095Y-74072438D01*
X195728095Y-74072438D02*
X195680476Y-74120057D01*
X195680476Y-74120057D02*
X195632857Y-74215295D01*
X195632857Y-74215295D02*
X195632857Y-74358152D01*
X195632857Y-74358152D02*
X195680476Y-74453390D01*
X195680476Y-74453390D02*
X195728095Y-74501009D01*
X195728095Y-74501009D02*
X195823333Y-74548628D01*
X195823333Y-74548628D02*
X196204285Y-74548628D01*
X194775714Y-74358152D02*
X194775714Y-75024819D01*
X195013809Y-73977200D02*
X195251904Y-74691485D01*
X195251904Y-74691485D02*
X194632857Y-74691485D01*
X194347142Y-74024819D02*
X193680476Y-74024819D01*
X193680476Y-74024819D02*
X194109047Y-75024819D01*
X190792857Y-72174819D02*
X191126190Y-71698628D01*
X191364285Y-72174819D02*
X191364285Y-71174819D01*
X191364285Y-71174819D02*
X190983333Y-71174819D01*
X190983333Y-71174819D02*
X190888095Y-71222438D01*
X190888095Y-71222438D02*
X190840476Y-71270057D01*
X190840476Y-71270057D02*
X190792857Y-71365295D01*
X190792857Y-71365295D02*
X190792857Y-71508152D01*
X190792857Y-71508152D02*
X190840476Y-71603390D01*
X190840476Y-71603390D02*
X190888095Y-71651009D01*
X190888095Y-71651009D02*
X190983333Y-71698628D01*
X190983333Y-71698628D02*
X191364285Y-71698628D01*
X189935714Y-71508152D02*
X189935714Y-72174819D01*
X190173809Y-71127200D02*
X190411904Y-71841485D01*
X190411904Y-71841485D02*
X189792857Y-71841485D01*
X188983333Y-71174819D02*
X189173809Y-71174819D01*
X189173809Y-71174819D02*
X189269047Y-71222438D01*
X189269047Y-71222438D02*
X189316666Y-71270057D01*
X189316666Y-71270057D02*
X189411904Y-71412914D01*
X189411904Y-71412914D02*
X189459523Y-71603390D01*
X189459523Y-71603390D02*
X189459523Y-71984342D01*
X189459523Y-71984342D02*
X189411904Y-72079580D01*
X189411904Y-72079580D02*
X189364285Y-72127200D01*
X189364285Y-72127200D02*
X189269047Y-72174819D01*
X189269047Y-72174819D02*
X189078571Y-72174819D01*
X189078571Y-72174819D02*
X188983333Y-72127200D01*
X188983333Y-72127200D02*
X188935714Y-72079580D01*
X188935714Y-72079580D02*
X188888095Y-71984342D01*
X188888095Y-71984342D02*
X188888095Y-71746247D01*
X188888095Y-71746247D02*
X188935714Y-71651009D01*
X188935714Y-71651009D02*
X188983333Y-71603390D01*
X188983333Y-71603390D02*
X189078571Y-71555771D01*
X189078571Y-71555771D02*
X189269047Y-71555771D01*
X189269047Y-71555771D02*
X189364285Y-71603390D01*
X189364285Y-71603390D02*
X189411904Y-71651009D01*
X189411904Y-71651009D02*
X189459523Y-71746247D01*
X227149819Y-87532142D02*
X226673628Y-87198809D01*
X227149819Y-86960714D02*
X226149819Y-86960714D01*
X226149819Y-86960714D02*
X226149819Y-87341666D01*
X226149819Y-87341666D02*
X226197438Y-87436904D01*
X226197438Y-87436904D02*
X226245057Y-87484523D01*
X226245057Y-87484523D02*
X226340295Y-87532142D01*
X226340295Y-87532142D02*
X226483152Y-87532142D01*
X226483152Y-87532142D02*
X226578390Y-87484523D01*
X226578390Y-87484523D02*
X226626009Y-87436904D01*
X226626009Y-87436904D02*
X226673628Y-87341666D01*
X226673628Y-87341666D02*
X226673628Y-86960714D01*
X226149819Y-88436904D02*
X226149819Y-87960714D01*
X226149819Y-87960714D02*
X226626009Y-87913095D01*
X226626009Y-87913095D02*
X226578390Y-87960714D01*
X226578390Y-87960714D02*
X226530771Y-88055952D01*
X226530771Y-88055952D02*
X226530771Y-88294047D01*
X226530771Y-88294047D02*
X226578390Y-88389285D01*
X226578390Y-88389285D02*
X226626009Y-88436904D01*
X226626009Y-88436904D02*
X226721247Y-88484523D01*
X226721247Y-88484523D02*
X226959342Y-88484523D01*
X226959342Y-88484523D02*
X227054580Y-88436904D01*
X227054580Y-88436904D02*
X227102200Y-88389285D01*
X227102200Y-88389285D02*
X227149819Y-88294047D01*
X227149819Y-88294047D02*
X227149819Y-88055952D01*
X227149819Y-88055952D02*
X227102200Y-87960714D01*
X227102200Y-87960714D02*
X227054580Y-87913095D01*
X226149819Y-89389285D02*
X226149819Y-88913095D01*
X226149819Y-88913095D02*
X226626009Y-88865476D01*
X226626009Y-88865476D02*
X226578390Y-88913095D01*
X226578390Y-88913095D02*
X226530771Y-89008333D01*
X226530771Y-89008333D02*
X226530771Y-89246428D01*
X226530771Y-89246428D02*
X226578390Y-89341666D01*
X226578390Y-89341666D02*
X226626009Y-89389285D01*
X226626009Y-89389285D02*
X226721247Y-89436904D01*
X226721247Y-89436904D02*
X226959342Y-89436904D01*
X226959342Y-89436904D02*
X227054580Y-89389285D01*
X227054580Y-89389285D02*
X227102200Y-89341666D01*
X227102200Y-89341666D02*
X227149819Y-89246428D01*
X227149819Y-89246428D02*
X227149819Y-89008333D01*
X227149819Y-89008333D02*
X227102200Y-88913095D01*
X227102200Y-88913095D02*
X227054580Y-88865476D01*
X230159819Y-87532142D02*
X229683628Y-87198809D01*
X230159819Y-86960714D02*
X229159819Y-86960714D01*
X229159819Y-86960714D02*
X229159819Y-87341666D01*
X229159819Y-87341666D02*
X229207438Y-87436904D01*
X229207438Y-87436904D02*
X229255057Y-87484523D01*
X229255057Y-87484523D02*
X229350295Y-87532142D01*
X229350295Y-87532142D02*
X229493152Y-87532142D01*
X229493152Y-87532142D02*
X229588390Y-87484523D01*
X229588390Y-87484523D02*
X229636009Y-87436904D01*
X229636009Y-87436904D02*
X229683628Y-87341666D01*
X229683628Y-87341666D02*
X229683628Y-86960714D01*
X229159819Y-88436904D02*
X229159819Y-87960714D01*
X229159819Y-87960714D02*
X229636009Y-87913095D01*
X229636009Y-87913095D02*
X229588390Y-87960714D01*
X229588390Y-87960714D02*
X229540771Y-88055952D01*
X229540771Y-88055952D02*
X229540771Y-88294047D01*
X229540771Y-88294047D02*
X229588390Y-88389285D01*
X229588390Y-88389285D02*
X229636009Y-88436904D01*
X229636009Y-88436904D02*
X229731247Y-88484523D01*
X229731247Y-88484523D02*
X229969342Y-88484523D01*
X229969342Y-88484523D02*
X230064580Y-88436904D01*
X230064580Y-88436904D02*
X230112200Y-88389285D01*
X230112200Y-88389285D02*
X230159819Y-88294047D01*
X230159819Y-88294047D02*
X230159819Y-88055952D01*
X230159819Y-88055952D02*
X230112200Y-87960714D01*
X230112200Y-87960714D02*
X230064580Y-87913095D01*
X229159819Y-88817857D02*
X229159819Y-89484523D01*
X229159819Y-89484523D02*
X230159819Y-89055952D01*
X197232857Y-91609580D02*
X197280476Y-91657200D01*
X197280476Y-91657200D02*
X197423333Y-91704819D01*
X197423333Y-91704819D02*
X197518571Y-91704819D01*
X197518571Y-91704819D02*
X197661428Y-91657200D01*
X197661428Y-91657200D02*
X197756666Y-91561961D01*
X197756666Y-91561961D02*
X197804285Y-91466723D01*
X197804285Y-91466723D02*
X197851904Y-91276247D01*
X197851904Y-91276247D02*
X197851904Y-91133390D01*
X197851904Y-91133390D02*
X197804285Y-90942914D01*
X197804285Y-90942914D02*
X197756666Y-90847676D01*
X197756666Y-90847676D02*
X197661428Y-90752438D01*
X197661428Y-90752438D02*
X197518571Y-90704819D01*
X197518571Y-90704819D02*
X197423333Y-90704819D01*
X197423333Y-90704819D02*
X197280476Y-90752438D01*
X197280476Y-90752438D02*
X197232857Y-90800057D01*
X196851904Y-90800057D02*
X196804285Y-90752438D01*
X196804285Y-90752438D02*
X196709047Y-90704819D01*
X196709047Y-90704819D02*
X196470952Y-90704819D01*
X196470952Y-90704819D02*
X196375714Y-90752438D01*
X196375714Y-90752438D02*
X196328095Y-90800057D01*
X196328095Y-90800057D02*
X196280476Y-90895295D01*
X196280476Y-90895295D02*
X196280476Y-90990533D01*
X196280476Y-90990533D02*
X196328095Y-91133390D01*
X196328095Y-91133390D02*
X196899523Y-91704819D01*
X196899523Y-91704819D02*
X196280476Y-91704819D01*
X195423333Y-91038152D02*
X195423333Y-91704819D01*
X195661428Y-90657200D02*
X195899523Y-91371485D01*
X195899523Y-91371485D02*
X195280476Y-91371485D01*
X194409580Y-81277142D02*
X194457200Y-81229523D01*
X194457200Y-81229523D02*
X194504819Y-81086666D01*
X194504819Y-81086666D02*
X194504819Y-80991428D01*
X194504819Y-80991428D02*
X194457200Y-80848571D01*
X194457200Y-80848571D02*
X194361961Y-80753333D01*
X194361961Y-80753333D02*
X194266723Y-80705714D01*
X194266723Y-80705714D02*
X194076247Y-80658095D01*
X194076247Y-80658095D02*
X193933390Y-80658095D01*
X193933390Y-80658095D02*
X193742914Y-80705714D01*
X193742914Y-80705714D02*
X193647676Y-80753333D01*
X193647676Y-80753333D02*
X193552438Y-80848571D01*
X193552438Y-80848571D02*
X193504819Y-80991428D01*
X193504819Y-80991428D02*
X193504819Y-81086666D01*
X193504819Y-81086666D02*
X193552438Y-81229523D01*
X193552438Y-81229523D02*
X193600057Y-81277142D01*
X193600057Y-81658095D02*
X193552438Y-81705714D01*
X193552438Y-81705714D02*
X193504819Y-81800952D01*
X193504819Y-81800952D02*
X193504819Y-82039047D01*
X193504819Y-82039047D02*
X193552438Y-82134285D01*
X193552438Y-82134285D02*
X193600057Y-82181904D01*
X193600057Y-82181904D02*
X193695295Y-82229523D01*
X193695295Y-82229523D02*
X193790533Y-82229523D01*
X193790533Y-82229523D02*
X193933390Y-82181904D01*
X193933390Y-82181904D02*
X194504819Y-81610476D01*
X194504819Y-81610476D02*
X194504819Y-82229523D01*
X193504819Y-82562857D02*
X193504819Y-83181904D01*
X193504819Y-83181904D02*
X193885771Y-82848571D01*
X193885771Y-82848571D02*
X193885771Y-82991428D01*
X193885771Y-82991428D02*
X193933390Y-83086666D01*
X193933390Y-83086666D02*
X193981009Y-83134285D01*
X193981009Y-83134285D02*
X194076247Y-83181904D01*
X194076247Y-83181904D02*
X194314342Y-83181904D01*
X194314342Y-83181904D02*
X194409580Y-83134285D01*
X194409580Y-83134285D02*
X194457200Y-83086666D01*
X194457200Y-83086666D02*
X194504819Y-82991428D01*
X194504819Y-82991428D02*
X194504819Y-82705714D01*
X194504819Y-82705714D02*
X194457200Y-82610476D01*
X194457200Y-82610476D02*
X194409580Y-82562857D01*
X214739580Y-88083333D02*
X214787200Y-88035714D01*
X214787200Y-88035714D02*
X214834819Y-87892857D01*
X214834819Y-87892857D02*
X214834819Y-87797619D01*
X214834819Y-87797619D02*
X214787200Y-87654762D01*
X214787200Y-87654762D02*
X214691961Y-87559524D01*
X214691961Y-87559524D02*
X214596723Y-87511905D01*
X214596723Y-87511905D02*
X214406247Y-87464286D01*
X214406247Y-87464286D02*
X214263390Y-87464286D01*
X214263390Y-87464286D02*
X214072914Y-87511905D01*
X214072914Y-87511905D02*
X213977676Y-87559524D01*
X213977676Y-87559524D02*
X213882438Y-87654762D01*
X213882438Y-87654762D02*
X213834819Y-87797619D01*
X213834819Y-87797619D02*
X213834819Y-87892857D01*
X213834819Y-87892857D02*
X213882438Y-88035714D01*
X213882438Y-88035714D02*
X213930057Y-88083333D01*
X214263390Y-88654762D02*
X214215771Y-88559524D01*
X214215771Y-88559524D02*
X214168152Y-88511905D01*
X214168152Y-88511905D02*
X214072914Y-88464286D01*
X214072914Y-88464286D02*
X214025295Y-88464286D01*
X214025295Y-88464286D02*
X213930057Y-88511905D01*
X213930057Y-88511905D02*
X213882438Y-88559524D01*
X213882438Y-88559524D02*
X213834819Y-88654762D01*
X213834819Y-88654762D02*
X213834819Y-88845238D01*
X213834819Y-88845238D02*
X213882438Y-88940476D01*
X213882438Y-88940476D02*
X213930057Y-88988095D01*
X213930057Y-88988095D02*
X214025295Y-89035714D01*
X214025295Y-89035714D02*
X214072914Y-89035714D01*
X214072914Y-89035714D02*
X214168152Y-88988095D01*
X214168152Y-88988095D02*
X214215771Y-88940476D01*
X214215771Y-88940476D02*
X214263390Y-88845238D01*
X214263390Y-88845238D02*
X214263390Y-88654762D01*
X214263390Y-88654762D02*
X214311009Y-88559524D01*
X214311009Y-88559524D02*
X214358628Y-88511905D01*
X214358628Y-88511905D02*
X214453866Y-88464286D01*
X214453866Y-88464286D02*
X214644342Y-88464286D01*
X214644342Y-88464286D02*
X214739580Y-88511905D01*
X214739580Y-88511905D02*
X214787200Y-88559524D01*
X214787200Y-88559524D02*
X214834819Y-88654762D01*
X214834819Y-88654762D02*
X214834819Y-88845238D01*
X214834819Y-88845238D02*
X214787200Y-88940476D01*
X214787200Y-88940476D02*
X214739580Y-88988095D01*
X214739580Y-88988095D02*
X214644342Y-89035714D01*
X214644342Y-89035714D02*
X214453866Y-89035714D01*
X214453866Y-89035714D02*
X214358628Y-88988095D01*
X214358628Y-88988095D02*
X214311009Y-88940476D01*
X214311009Y-88940476D02*
X214263390Y-88845238D01*
X235422857Y-104942182D02*
X235756190Y-104465991D01*
X235994285Y-104942182D02*
X235994285Y-103942182D01*
X235994285Y-103942182D02*
X235613333Y-103942182D01*
X235613333Y-103942182D02*
X235518095Y-103989801D01*
X235518095Y-103989801D02*
X235470476Y-104037420D01*
X235470476Y-104037420D02*
X235422857Y-104132658D01*
X235422857Y-104132658D02*
X235422857Y-104275515D01*
X235422857Y-104275515D02*
X235470476Y-104370753D01*
X235470476Y-104370753D02*
X235518095Y-104418372D01*
X235518095Y-104418372D02*
X235613333Y-104465991D01*
X235613333Y-104465991D02*
X235994285Y-104465991D01*
X234470476Y-104942182D02*
X235041904Y-104942182D01*
X234756190Y-104942182D02*
X234756190Y-103942182D01*
X234756190Y-103942182D02*
X234851428Y-104085039D01*
X234851428Y-104085039D02*
X234946666Y-104180277D01*
X234946666Y-104180277D02*
X235041904Y-104227896D01*
X233899047Y-104370753D02*
X233994285Y-104323134D01*
X233994285Y-104323134D02*
X234041904Y-104275515D01*
X234041904Y-104275515D02*
X234089523Y-104180277D01*
X234089523Y-104180277D02*
X234089523Y-104132658D01*
X234089523Y-104132658D02*
X234041904Y-104037420D01*
X234041904Y-104037420D02*
X233994285Y-103989801D01*
X233994285Y-103989801D02*
X233899047Y-103942182D01*
X233899047Y-103942182D02*
X233708571Y-103942182D01*
X233708571Y-103942182D02*
X233613333Y-103989801D01*
X233613333Y-103989801D02*
X233565714Y-104037420D01*
X233565714Y-104037420D02*
X233518095Y-104132658D01*
X233518095Y-104132658D02*
X233518095Y-104180277D01*
X233518095Y-104180277D02*
X233565714Y-104275515D01*
X233565714Y-104275515D02*
X233613333Y-104323134D01*
X233613333Y-104323134D02*
X233708571Y-104370753D01*
X233708571Y-104370753D02*
X233899047Y-104370753D01*
X233899047Y-104370753D02*
X233994285Y-104418372D01*
X233994285Y-104418372D02*
X234041904Y-104465991D01*
X234041904Y-104465991D02*
X234089523Y-104561229D01*
X234089523Y-104561229D02*
X234089523Y-104751705D01*
X234089523Y-104751705D02*
X234041904Y-104846943D01*
X234041904Y-104846943D02*
X233994285Y-104894563D01*
X233994285Y-104894563D02*
X233899047Y-104942182D01*
X233899047Y-104942182D02*
X233708571Y-104942182D01*
X233708571Y-104942182D02*
X233613333Y-104894563D01*
X233613333Y-104894563D02*
X233565714Y-104846943D01*
X233565714Y-104846943D02*
X233518095Y-104751705D01*
X233518095Y-104751705D02*
X233518095Y-104561229D01*
X233518095Y-104561229D02*
X233565714Y-104465991D01*
X233565714Y-104465991D02*
X233613333Y-104418372D01*
X233613333Y-104418372D02*
X233708571Y-104370753D01*
X197232857Y-93019580D02*
X197280476Y-93067200D01*
X197280476Y-93067200D02*
X197423333Y-93114819D01*
X197423333Y-93114819D02*
X197518571Y-93114819D01*
X197518571Y-93114819D02*
X197661428Y-93067200D01*
X197661428Y-93067200D02*
X197756666Y-92971961D01*
X197756666Y-92971961D02*
X197804285Y-92876723D01*
X197804285Y-92876723D02*
X197851904Y-92686247D01*
X197851904Y-92686247D02*
X197851904Y-92543390D01*
X197851904Y-92543390D02*
X197804285Y-92352914D01*
X197804285Y-92352914D02*
X197756666Y-92257676D01*
X197756666Y-92257676D02*
X197661428Y-92162438D01*
X197661428Y-92162438D02*
X197518571Y-92114819D01*
X197518571Y-92114819D02*
X197423333Y-92114819D01*
X197423333Y-92114819D02*
X197280476Y-92162438D01*
X197280476Y-92162438D02*
X197232857Y-92210057D01*
X196280476Y-93114819D02*
X196851904Y-93114819D01*
X196566190Y-93114819D02*
X196566190Y-92114819D01*
X196566190Y-92114819D02*
X196661428Y-92257676D01*
X196661428Y-92257676D02*
X196756666Y-92352914D01*
X196756666Y-92352914D02*
X196851904Y-92400533D01*
X195375714Y-92114819D02*
X195851904Y-92114819D01*
X195851904Y-92114819D02*
X195899523Y-92591009D01*
X195899523Y-92591009D02*
X195851904Y-92543390D01*
X195851904Y-92543390D02*
X195756666Y-92495771D01*
X195756666Y-92495771D02*
X195518571Y-92495771D01*
X195518571Y-92495771D02*
X195423333Y-92543390D01*
X195423333Y-92543390D02*
X195375714Y-92591009D01*
X195375714Y-92591009D02*
X195328095Y-92686247D01*
X195328095Y-92686247D02*
X195328095Y-92924342D01*
X195328095Y-92924342D02*
X195375714Y-93019580D01*
X195375714Y-93019580D02*
X195423333Y-93067200D01*
X195423333Y-93067200D02*
X195518571Y-93114819D01*
X195518571Y-93114819D02*
X195756666Y-93114819D01*
X195756666Y-93114819D02*
X195851904Y-93067200D01*
X195851904Y-93067200D02*
X195899523Y-93019580D01*
X228649819Y-87532142D02*
X228173628Y-87198809D01*
X228649819Y-86960714D02*
X227649819Y-86960714D01*
X227649819Y-86960714D02*
X227649819Y-87341666D01*
X227649819Y-87341666D02*
X227697438Y-87436904D01*
X227697438Y-87436904D02*
X227745057Y-87484523D01*
X227745057Y-87484523D02*
X227840295Y-87532142D01*
X227840295Y-87532142D02*
X227983152Y-87532142D01*
X227983152Y-87532142D02*
X228078390Y-87484523D01*
X228078390Y-87484523D02*
X228126009Y-87436904D01*
X228126009Y-87436904D02*
X228173628Y-87341666D01*
X228173628Y-87341666D02*
X228173628Y-86960714D01*
X227649819Y-88436904D02*
X227649819Y-87960714D01*
X227649819Y-87960714D02*
X228126009Y-87913095D01*
X228126009Y-87913095D02*
X228078390Y-87960714D01*
X228078390Y-87960714D02*
X228030771Y-88055952D01*
X228030771Y-88055952D02*
X228030771Y-88294047D01*
X228030771Y-88294047D02*
X228078390Y-88389285D01*
X228078390Y-88389285D02*
X228126009Y-88436904D01*
X228126009Y-88436904D02*
X228221247Y-88484523D01*
X228221247Y-88484523D02*
X228459342Y-88484523D01*
X228459342Y-88484523D02*
X228554580Y-88436904D01*
X228554580Y-88436904D02*
X228602200Y-88389285D01*
X228602200Y-88389285D02*
X228649819Y-88294047D01*
X228649819Y-88294047D02*
X228649819Y-88055952D01*
X228649819Y-88055952D02*
X228602200Y-87960714D01*
X228602200Y-87960714D02*
X228554580Y-87913095D01*
X227649819Y-89341666D02*
X227649819Y-89151190D01*
X227649819Y-89151190D02*
X227697438Y-89055952D01*
X227697438Y-89055952D02*
X227745057Y-89008333D01*
X227745057Y-89008333D02*
X227887914Y-88913095D01*
X227887914Y-88913095D02*
X228078390Y-88865476D01*
X228078390Y-88865476D02*
X228459342Y-88865476D01*
X228459342Y-88865476D02*
X228554580Y-88913095D01*
X228554580Y-88913095D02*
X228602200Y-88960714D01*
X228602200Y-88960714D02*
X228649819Y-89055952D01*
X228649819Y-89055952D02*
X228649819Y-89246428D01*
X228649819Y-89246428D02*
X228602200Y-89341666D01*
X228602200Y-89341666D02*
X228554580Y-89389285D01*
X228554580Y-89389285D02*
X228459342Y-89436904D01*
X228459342Y-89436904D02*
X228221247Y-89436904D01*
X228221247Y-89436904D02*
X228126009Y-89389285D01*
X228126009Y-89389285D02*
X228078390Y-89341666D01*
X228078390Y-89341666D02*
X228030771Y-89246428D01*
X228030771Y-89246428D02*
X228030771Y-89055952D01*
X228030771Y-89055952D02*
X228078390Y-88960714D01*
X228078390Y-88960714D02*
X228126009Y-88913095D01*
X228126009Y-88913095D02*
X228221247Y-88865476D01*
X193074819Y-98567142D02*
X192598628Y-98233809D01*
X193074819Y-97995714D02*
X192074819Y-97995714D01*
X192074819Y-97995714D02*
X192074819Y-98376666D01*
X192074819Y-98376666D02*
X192122438Y-98471904D01*
X192122438Y-98471904D02*
X192170057Y-98519523D01*
X192170057Y-98519523D02*
X192265295Y-98567142D01*
X192265295Y-98567142D02*
X192408152Y-98567142D01*
X192408152Y-98567142D02*
X192503390Y-98519523D01*
X192503390Y-98519523D02*
X192551009Y-98471904D01*
X192551009Y-98471904D02*
X192598628Y-98376666D01*
X192598628Y-98376666D02*
X192598628Y-97995714D01*
X192170057Y-98948095D02*
X192122438Y-98995714D01*
X192122438Y-98995714D02*
X192074819Y-99090952D01*
X192074819Y-99090952D02*
X192074819Y-99329047D01*
X192074819Y-99329047D02*
X192122438Y-99424285D01*
X192122438Y-99424285D02*
X192170057Y-99471904D01*
X192170057Y-99471904D02*
X192265295Y-99519523D01*
X192265295Y-99519523D02*
X192360533Y-99519523D01*
X192360533Y-99519523D02*
X192503390Y-99471904D01*
X192503390Y-99471904D02*
X193074819Y-98900476D01*
X193074819Y-98900476D02*
X193074819Y-99519523D01*
X192074819Y-100138571D02*
X192074819Y-100233809D01*
X192074819Y-100233809D02*
X192122438Y-100329047D01*
X192122438Y-100329047D02*
X192170057Y-100376666D01*
X192170057Y-100376666D02*
X192265295Y-100424285D01*
X192265295Y-100424285D02*
X192455771Y-100471904D01*
X192455771Y-100471904D02*
X192693866Y-100471904D01*
X192693866Y-100471904D02*
X192884342Y-100424285D01*
X192884342Y-100424285D02*
X192979580Y-100376666D01*
X192979580Y-100376666D02*
X193027200Y-100329047D01*
X193027200Y-100329047D02*
X193074819Y-100233809D01*
X193074819Y-100233809D02*
X193074819Y-100138571D01*
X193074819Y-100138571D02*
X193027200Y-100043333D01*
X193027200Y-100043333D02*
X192979580Y-99995714D01*
X192979580Y-99995714D02*
X192884342Y-99948095D01*
X192884342Y-99948095D02*
X192693866Y-99900476D01*
X192693866Y-99900476D02*
X192455771Y-99900476D01*
X192455771Y-99900476D02*
X192265295Y-99948095D01*
X192265295Y-99948095D02*
X192170057Y-99995714D01*
X192170057Y-99995714D02*
X192122438Y-100043333D01*
X192122438Y-100043333D02*
X192074819Y-100138571D01*
X210929580Y-75817142D02*
X210977200Y-75769523D01*
X210977200Y-75769523D02*
X211024819Y-75626666D01*
X211024819Y-75626666D02*
X211024819Y-75531428D01*
X211024819Y-75531428D02*
X210977200Y-75388571D01*
X210977200Y-75388571D02*
X210881961Y-75293333D01*
X210881961Y-75293333D02*
X210786723Y-75245714D01*
X210786723Y-75245714D02*
X210596247Y-75198095D01*
X210596247Y-75198095D02*
X210453390Y-75198095D01*
X210453390Y-75198095D02*
X210262914Y-75245714D01*
X210262914Y-75245714D02*
X210167676Y-75293333D01*
X210167676Y-75293333D02*
X210072438Y-75388571D01*
X210072438Y-75388571D02*
X210024819Y-75531428D01*
X210024819Y-75531428D02*
X210024819Y-75626666D01*
X210024819Y-75626666D02*
X210072438Y-75769523D01*
X210072438Y-75769523D02*
X210120057Y-75817142D01*
X210120057Y-76198095D02*
X210072438Y-76245714D01*
X210072438Y-76245714D02*
X210024819Y-76340952D01*
X210024819Y-76340952D02*
X210024819Y-76579047D01*
X210024819Y-76579047D02*
X210072438Y-76674285D01*
X210072438Y-76674285D02*
X210120057Y-76721904D01*
X210120057Y-76721904D02*
X210215295Y-76769523D01*
X210215295Y-76769523D02*
X210310533Y-76769523D01*
X210310533Y-76769523D02*
X210453390Y-76721904D01*
X210453390Y-76721904D02*
X211024819Y-76150476D01*
X211024819Y-76150476D02*
X211024819Y-76769523D01*
X210024819Y-77388571D02*
X210024819Y-77483809D01*
X210024819Y-77483809D02*
X210072438Y-77579047D01*
X210072438Y-77579047D02*
X210120057Y-77626666D01*
X210120057Y-77626666D02*
X210215295Y-77674285D01*
X210215295Y-77674285D02*
X210405771Y-77721904D01*
X210405771Y-77721904D02*
X210643866Y-77721904D01*
X210643866Y-77721904D02*
X210834342Y-77674285D01*
X210834342Y-77674285D02*
X210929580Y-77626666D01*
X210929580Y-77626666D02*
X210977200Y-77579047D01*
X210977200Y-77579047D02*
X211024819Y-77483809D01*
X211024819Y-77483809D02*
X211024819Y-77388571D01*
X211024819Y-77388571D02*
X210977200Y-77293333D01*
X210977200Y-77293333D02*
X210929580Y-77245714D01*
X210929580Y-77245714D02*
X210834342Y-77198095D01*
X210834342Y-77198095D02*
X210643866Y-77150476D01*
X210643866Y-77150476D02*
X210405771Y-77150476D01*
X210405771Y-77150476D02*
X210215295Y-77198095D01*
X210215295Y-77198095D02*
X210120057Y-77245714D01*
X210120057Y-77245714D02*
X210072438Y-77293333D01*
X210072438Y-77293333D02*
X210024819Y-77388571D01*
X198269819Y-111045476D02*
X198984104Y-111045476D01*
X198984104Y-111045476D02*
X199126961Y-110997857D01*
X199126961Y-110997857D02*
X199222200Y-110902619D01*
X199222200Y-110902619D02*
X199269819Y-110759762D01*
X199269819Y-110759762D02*
X199269819Y-110664524D01*
X199269819Y-112045476D02*
X199269819Y-111474048D01*
X199269819Y-111759762D02*
X198269819Y-111759762D01*
X198269819Y-111759762D02*
X198412676Y-111664524D01*
X198412676Y-111664524D02*
X198507914Y-111569286D01*
X198507914Y-111569286D02*
X198555533Y-111474048D01*
X198269819Y-112950238D02*
X198269819Y-112474048D01*
X198269819Y-112474048D02*
X198746009Y-112426429D01*
X198746009Y-112426429D02*
X198698390Y-112474048D01*
X198698390Y-112474048D02*
X198650771Y-112569286D01*
X198650771Y-112569286D02*
X198650771Y-112807381D01*
X198650771Y-112807381D02*
X198698390Y-112902619D01*
X198698390Y-112902619D02*
X198746009Y-112950238D01*
X198746009Y-112950238D02*
X198841247Y-112997857D01*
X198841247Y-112997857D02*
X199079342Y-112997857D01*
X199079342Y-112997857D02*
X199174580Y-112950238D01*
X199174580Y-112950238D02*
X199222200Y-112902619D01*
X199222200Y-112902619D02*
X199269819Y-112807381D01*
X199269819Y-112807381D02*
X199269819Y-112569286D01*
X199269819Y-112569286D02*
X199222200Y-112474048D01*
X199222200Y-112474048D02*
X199174580Y-112426429D01*
X190792857Y-75194819D02*
X191126190Y-74718628D01*
X191364285Y-75194819D02*
X191364285Y-74194819D01*
X191364285Y-74194819D02*
X190983333Y-74194819D01*
X190983333Y-74194819D02*
X190888095Y-74242438D01*
X190888095Y-74242438D02*
X190840476Y-74290057D01*
X190840476Y-74290057D02*
X190792857Y-74385295D01*
X190792857Y-74385295D02*
X190792857Y-74528152D01*
X190792857Y-74528152D02*
X190840476Y-74623390D01*
X190840476Y-74623390D02*
X190888095Y-74671009D01*
X190888095Y-74671009D02*
X190983333Y-74718628D01*
X190983333Y-74718628D02*
X191364285Y-74718628D01*
X189935714Y-74528152D02*
X189935714Y-75194819D01*
X190173809Y-74147200D02*
X190411904Y-74861485D01*
X190411904Y-74861485D02*
X189792857Y-74861485D01*
X189269047Y-74623390D02*
X189364285Y-74575771D01*
X189364285Y-74575771D02*
X189411904Y-74528152D01*
X189411904Y-74528152D02*
X189459523Y-74432914D01*
X189459523Y-74432914D02*
X189459523Y-74385295D01*
X189459523Y-74385295D02*
X189411904Y-74290057D01*
X189411904Y-74290057D02*
X189364285Y-74242438D01*
X189364285Y-74242438D02*
X189269047Y-74194819D01*
X189269047Y-74194819D02*
X189078571Y-74194819D01*
X189078571Y-74194819D02*
X188983333Y-74242438D01*
X188983333Y-74242438D02*
X188935714Y-74290057D01*
X188935714Y-74290057D02*
X188888095Y-74385295D01*
X188888095Y-74385295D02*
X188888095Y-74432914D01*
X188888095Y-74432914D02*
X188935714Y-74528152D01*
X188935714Y-74528152D02*
X188983333Y-74575771D01*
X188983333Y-74575771D02*
X189078571Y-74623390D01*
X189078571Y-74623390D02*
X189269047Y-74623390D01*
X189269047Y-74623390D02*
X189364285Y-74671009D01*
X189364285Y-74671009D02*
X189411904Y-74718628D01*
X189411904Y-74718628D02*
X189459523Y-74813866D01*
X189459523Y-74813866D02*
X189459523Y-75004342D01*
X189459523Y-75004342D02*
X189411904Y-75099580D01*
X189411904Y-75099580D02*
X189364285Y-75147200D01*
X189364285Y-75147200D02*
X189269047Y-75194819D01*
X189269047Y-75194819D02*
X189078571Y-75194819D01*
X189078571Y-75194819D02*
X188983333Y-75147200D01*
X188983333Y-75147200D02*
X188935714Y-75099580D01*
X188935714Y-75099580D02*
X188888095Y-75004342D01*
X188888095Y-75004342D02*
X188888095Y-74813866D01*
X188888095Y-74813866D02*
X188935714Y-74718628D01*
X188935714Y-74718628D02*
X188983333Y-74671009D01*
X188983333Y-74671009D02*
X189078571Y-74623390D01*
X197269580Y-78397142D02*
X197317200Y-78349523D01*
X197317200Y-78349523D02*
X197364819Y-78206666D01*
X197364819Y-78206666D02*
X197364819Y-78111428D01*
X197364819Y-78111428D02*
X197317200Y-77968571D01*
X197317200Y-77968571D02*
X197221961Y-77873333D01*
X197221961Y-77873333D02*
X197126723Y-77825714D01*
X197126723Y-77825714D02*
X196936247Y-77778095D01*
X196936247Y-77778095D02*
X196793390Y-77778095D01*
X196793390Y-77778095D02*
X196602914Y-77825714D01*
X196602914Y-77825714D02*
X196507676Y-77873333D01*
X196507676Y-77873333D02*
X196412438Y-77968571D01*
X196412438Y-77968571D02*
X196364819Y-78111428D01*
X196364819Y-78111428D02*
X196364819Y-78206666D01*
X196364819Y-78206666D02*
X196412438Y-78349523D01*
X196412438Y-78349523D02*
X196460057Y-78397142D01*
X197364819Y-79349523D02*
X197364819Y-78778095D01*
X197364819Y-79063809D02*
X196364819Y-79063809D01*
X196364819Y-79063809D02*
X196507676Y-78968571D01*
X196507676Y-78968571D02*
X196602914Y-78873333D01*
X196602914Y-78873333D02*
X196650533Y-78778095D01*
X196698152Y-80206666D02*
X197364819Y-80206666D01*
X196317200Y-79968571D02*
X197031485Y-79730476D01*
X197031485Y-79730476D02*
X197031485Y-80349523D01*
X195622857Y-68549580D02*
X195670476Y-68597200D01*
X195670476Y-68597200D02*
X195813333Y-68644819D01*
X195813333Y-68644819D02*
X195908571Y-68644819D01*
X195908571Y-68644819D02*
X196051428Y-68597200D01*
X196051428Y-68597200D02*
X196146666Y-68501961D01*
X196146666Y-68501961D02*
X196194285Y-68406723D01*
X196194285Y-68406723D02*
X196241904Y-68216247D01*
X196241904Y-68216247D02*
X196241904Y-68073390D01*
X196241904Y-68073390D02*
X196194285Y-67882914D01*
X196194285Y-67882914D02*
X196146666Y-67787676D01*
X196146666Y-67787676D02*
X196051428Y-67692438D01*
X196051428Y-67692438D02*
X195908571Y-67644819D01*
X195908571Y-67644819D02*
X195813333Y-67644819D01*
X195813333Y-67644819D02*
X195670476Y-67692438D01*
X195670476Y-67692438D02*
X195622857Y-67740057D01*
X194718095Y-67644819D02*
X195194285Y-67644819D01*
X195194285Y-67644819D02*
X195241904Y-68121009D01*
X195241904Y-68121009D02*
X195194285Y-68073390D01*
X195194285Y-68073390D02*
X195099047Y-68025771D01*
X195099047Y-68025771D02*
X194860952Y-68025771D01*
X194860952Y-68025771D02*
X194765714Y-68073390D01*
X194765714Y-68073390D02*
X194718095Y-68121009D01*
X194718095Y-68121009D02*
X194670476Y-68216247D01*
X194670476Y-68216247D02*
X194670476Y-68454342D01*
X194670476Y-68454342D02*
X194718095Y-68549580D01*
X194718095Y-68549580D02*
X194765714Y-68597200D01*
X194765714Y-68597200D02*
X194860952Y-68644819D01*
X194860952Y-68644819D02*
X195099047Y-68644819D01*
X195099047Y-68644819D02*
X195194285Y-68597200D01*
X195194285Y-68597200D02*
X195241904Y-68549580D01*
X193813333Y-67978152D02*
X193813333Y-68644819D01*
X194051428Y-67597200D02*
X194289523Y-68311485D01*
X194289523Y-68311485D02*
X193670476Y-68311485D01*
X216267857Y-92489580D02*
X216315476Y-92537200D01*
X216315476Y-92537200D02*
X216458333Y-92584819D01*
X216458333Y-92584819D02*
X216553571Y-92584819D01*
X216553571Y-92584819D02*
X216696428Y-92537200D01*
X216696428Y-92537200D02*
X216791666Y-92441961D01*
X216791666Y-92441961D02*
X216839285Y-92346723D01*
X216839285Y-92346723D02*
X216886904Y-92156247D01*
X216886904Y-92156247D02*
X216886904Y-92013390D01*
X216886904Y-92013390D02*
X216839285Y-91822914D01*
X216839285Y-91822914D02*
X216791666Y-91727676D01*
X216791666Y-91727676D02*
X216696428Y-91632438D01*
X216696428Y-91632438D02*
X216553571Y-91584819D01*
X216553571Y-91584819D02*
X216458333Y-91584819D01*
X216458333Y-91584819D02*
X216315476Y-91632438D01*
X216315476Y-91632438D02*
X216267857Y-91680057D01*
X215315476Y-92584819D02*
X215886904Y-92584819D01*
X215601190Y-92584819D02*
X215601190Y-91584819D01*
X215601190Y-91584819D02*
X215696428Y-91727676D01*
X215696428Y-91727676D02*
X215791666Y-91822914D01*
X215791666Y-91822914D02*
X215886904Y-91870533D01*
X214696428Y-91584819D02*
X214601190Y-91584819D01*
X214601190Y-91584819D02*
X214505952Y-91632438D01*
X214505952Y-91632438D02*
X214458333Y-91680057D01*
X214458333Y-91680057D02*
X214410714Y-91775295D01*
X214410714Y-91775295D02*
X214363095Y-91965771D01*
X214363095Y-91965771D02*
X214363095Y-92203866D01*
X214363095Y-92203866D02*
X214410714Y-92394342D01*
X214410714Y-92394342D02*
X214458333Y-92489580D01*
X214458333Y-92489580D02*
X214505952Y-92537200D01*
X214505952Y-92537200D02*
X214601190Y-92584819D01*
X214601190Y-92584819D02*
X214696428Y-92584819D01*
X214696428Y-92584819D02*
X214791666Y-92537200D01*
X214791666Y-92537200D02*
X214839285Y-92489580D01*
X214839285Y-92489580D02*
X214886904Y-92394342D01*
X214886904Y-92394342D02*
X214934523Y-92203866D01*
X214934523Y-92203866D02*
X214934523Y-91965771D01*
X214934523Y-91965771D02*
X214886904Y-91775295D01*
X214886904Y-91775295D02*
X214839285Y-91680057D01*
X214839285Y-91680057D02*
X214791666Y-91632438D01*
X214791666Y-91632438D02*
X214696428Y-91584819D01*
X235469707Y-89914202D02*
X235803040Y-89438011D01*
X236041135Y-89914202D02*
X236041135Y-88914202D01*
X236041135Y-88914202D02*
X235660183Y-88914202D01*
X235660183Y-88914202D02*
X235564945Y-88961821D01*
X235564945Y-88961821D02*
X235517326Y-89009440D01*
X235517326Y-89009440D02*
X235469707Y-89104678D01*
X235469707Y-89104678D02*
X235469707Y-89247535D01*
X235469707Y-89247535D02*
X235517326Y-89342773D01*
X235517326Y-89342773D02*
X235564945Y-89390392D01*
X235564945Y-89390392D02*
X235660183Y-89438011D01*
X235660183Y-89438011D02*
X236041135Y-89438011D01*
X234612564Y-89247535D02*
X234612564Y-89914202D01*
X234850659Y-88866583D02*
X235088754Y-89580868D01*
X235088754Y-89580868D02*
X234469707Y-89580868D01*
X234136373Y-89009440D02*
X234088754Y-88961821D01*
X234088754Y-88961821D02*
X233993516Y-88914202D01*
X233993516Y-88914202D02*
X233755421Y-88914202D01*
X233755421Y-88914202D02*
X233660183Y-88961821D01*
X233660183Y-88961821D02*
X233612564Y-89009440D01*
X233612564Y-89009440D02*
X233564945Y-89104678D01*
X233564945Y-89104678D02*
X233564945Y-89199916D01*
X233564945Y-89199916D02*
X233612564Y-89342773D01*
X233612564Y-89342773D02*
X234183992Y-89914202D01*
X234183992Y-89914202D02*
X233564945Y-89914202D01*
X191374819Y-98497142D02*
X190898628Y-98163809D01*
X191374819Y-97925714D02*
X190374819Y-97925714D01*
X190374819Y-97925714D02*
X190374819Y-98306666D01*
X190374819Y-98306666D02*
X190422438Y-98401904D01*
X190422438Y-98401904D02*
X190470057Y-98449523D01*
X190470057Y-98449523D02*
X190565295Y-98497142D01*
X190565295Y-98497142D02*
X190708152Y-98497142D01*
X190708152Y-98497142D02*
X190803390Y-98449523D01*
X190803390Y-98449523D02*
X190851009Y-98401904D01*
X190851009Y-98401904D02*
X190898628Y-98306666D01*
X190898628Y-98306666D02*
X190898628Y-97925714D01*
X190470057Y-98878095D02*
X190422438Y-98925714D01*
X190422438Y-98925714D02*
X190374819Y-99020952D01*
X190374819Y-99020952D02*
X190374819Y-99259047D01*
X190374819Y-99259047D02*
X190422438Y-99354285D01*
X190422438Y-99354285D02*
X190470057Y-99401904D01*
X190470057Y-99401904D02*
X190565295Y-99449523D01*
X190565295Y-99449523D02*
X190660533Y-99449523D01*
X190660533Y-99449523D02*
X190803390Y-99401904D01*
X190803390Y-99401904D02*
X191374819Y-98830476D01*
X191374819Y-98830476D02*
X191374819Y-99449523D01*
X191374819Y-100401904D02*
X191374819Y-99830476D01*
X191374819Y-100116190D02*
X190374819Y-100116190D01*
X190374819Y-100116190D02*
X190517676Y-100020952D01*
X190517676Y-100020952D02*
X190612914Y-99925714D01*
X190612914Y-99925714D02*
X190660533Y-99830476D01*
X209026284Y-68739866D02*
X209359617Y-68263675D01*
X209597712Y-68739866D02*
X209597712Y-67739866D01*
X209597712Y-67739866D02*
X209216760Y-67739866D01*
X209216760Y-67739866D02*
X209121522Y-67787485D01*
X209121522Y-67787485D02*
X209073903Y-67835104D01*
X209073903Y-67835104D02*
X209026284Y-67930342D01*
X209026284Y-67930342D02*
X209026284Y-68073199D01*
X209026284Y-68073199D02*
X209073903Y-68168437D01*
X209073903Y-68168437D02*
X209121522Y-68216056D01*
X209121522Y-68216056D02*
X209216760Y-68263675D01*
X209216760Y-68263675D02*
X209597712Y-68263675D01*
X208169141Y-68073199D02*
X208169141Y-68739866D01*
X208407236Y-67692247D02*
X208645331Y-68406532D01*
X208645331Y-68406532D02*
X208026284Y-68406532D01*
X207169141Y-67739866D02*
X207645331Y-67739866D01*
X207645331Y-67739866D02*
X207692950Y-68216056D01*
X207692950Y-68216056D02*
X207645331Y-68168437D01*
X207645331Y-68168437D02*
X207550093Y-68120818D01*
X207550093Y-68120818D02*
X207311998Y-68120818D01*
X207311998Y-68120818D02*
X207216760Y-68168437D01*
X207216760Y-68168437D02*
X207169141Y-68216056D01*
X207169141Y-68216056D02*
X207121522Y-68311294D01*
X207121522Y-68311294D02*
X207121522Y-68549389D01*
X207121522Y-68549389D02*
X207169141Y-68644627D01*
X207169141Y-68644627D02*
X207216760Y-68692247D01*
X207216760Y-68692247D02*
X207311998Y-68739866D01*
X207311998Y-68739866D02*
X207550093Y-68739866D01*
X207550093Y-68739866D02*
X207645331Y-68692247D01*
X207645331Y-68692247D02*
X207692950Y-68644627D01*
X235469707Y-87060196D02*
X235517326Y-87107816D01*
X235517326Y-87107816D02*
X235660183Y-87155435D01*
X235660183Y-87155435D02*
X235755421Y-87155435D01*
X235755421Y-87155435D02*
X235898278Y-87107816D01*
X235898278Y-87107816D02*
X235993516Y-87012577D01*
X235993516Y-87012577D02*
X236041135Y-86917339D01*
X236041135Y-86917339D02*
X236088754Y-86726863D01*
X236088754Y-86726863D02*
X236088754Y-86584006D01*
X236088754Y-86584006D02*
X236041135Y-86393530D01*
X236041135Y-86393530D02*
X235993516Y-86298292D01*
X235993516Y-86298292D02*
X235898278Y-86203054D01*
X235898278Y-86203054D02*
X235755421Y-86155435D01*
X235755421Y-86155435D02*
X235660183Y-86155435D01*
X235660183Y-86155435D02*
X235517326Y-86203054D01*
X235517326Y-86203054D02*
X235469707Y-86250673D01*
X235136373Y-86155435D02*
X234469707Y-86155435D01*
X234469707Y-86155435D02*
X234898278Y-87155435D01*
X233660183Y-86488768D02*
X233660183Y-87155435D01*
X233898278Y-86107816D02*
X234136373Y-86822101D01*
X234136373Y-86822101D02*
X233517326Y-86822101D01*
X199820057Y-98969761D02*
X199772438Y-98874523D01*
X199772438Y-98874523D02*
X199677200Y-98779285D01*
X199677200Y-98779285D02*
X199534342Y-98636428D01*
X199534342Y-98636428D02*
X199486723Y-98541190D01*
X199486723Y-98541190D02*
X199486723Y-98445952D01*
X199724819Y-98493571D02*
X199677200Y-98398333D01*
X199677200Y-98398333D02*
X199581961Y-98303095D01*
X199581961Y-98303095D02*
X199391485Y-98255476D01*
X199391485Y-98255476D02*
X199058152Y-98255476D01*
X199058152Y-98255476D02*
X198867676Y-98303095D01*
X198867676Y-98303095D02*
X198772438Y-98398333D01*
X198772438Y-98398333D02*
X198724819Y-98493571D01*
X198724819Y-98493571D02*
X198724819Y-98684047D01*
X198724819Y-98684047D02*
X198772438Y-98779285D01*
X198772438Y-98779285D02*
X198867676Y-98874523D01*
X198867676Y-98874523D02*
X199058152Y-98922142D01*
X199058152Y-98922142D02*
X199391485Y-98922142D01*
X199391485Y-98922142D02*
X199581961Y-98874523D01*
X199581961Y-98874523D02*
X199677200Y-98779285D01*
X199677200Y-98779285D02*
X199724819Y-98684047D01*
X199724819Y-98684047D02*
X199724819Y-98493571D01*
X199724819Y-99874523D02*
X199724819Y-99303095D01*
X199724819Y-99588809D02*
X198724819Y-99588809D01*
X198724819Y-99588809D02*
X198867676Y-99493571D01*
X198867676Y-99493571D02*
X198962914Y-99398333D01*
X198962914Y-99398333D02*
X199010533Y-99303095D01*
X231879580Y-83582142D02*
X231927200Y-83534523D01*
X231927200Y-83534523D02*
X231974819Y-83391666D01*
X231974819Y-83391666D02*
X231974819Y-83296428D01*
X231974819Y-83296428D02*
X231927200Y-83153571D01*
X231927200Y-83153571D02*
X231831961Y-83058333D01*
X231831961Y-83058333D02*
X231736723Y-83010714D01*
X231736723Y-83010714D02*
X231546247Y-82963095D01*
X231546247Y-82963095D02*
X231403390Y-82963095D01*
X231403390Y-82963095D02*
X231212914Y-83010714D01*
X231212914Y-83010714D02*
X231117676Y-83058333D01*
X231117676Y-83058333D02*
X231022438Y-83153571D01*
X231022438Y-83153571D02*
X230974819Y-83296428D01*
X230974819Y-83296428D02*
X230974819Y-83391666D01*
X230974819Y-83391666D02*
X231022438Y-83534523D01*
X231022438Y-83534523D02*
X231070057Y-83582142D01*
X230974819Y-83915476D02*
X230974819Y-84582142D01*
X230974819Y-84582142D02*
X231974819Y-84153571D01*
X231070057Y-84915476D02*
X231022438Y-84963095D01*
X231022438Y-84963095D02*
X230974819Y-85058333D01*
X230974819Y-85058333D02*
X230974819Y-85296428D01*
X230974819Y-85296428D02*
X231022438Y-85391666D01*
X231022438Y-85391666D02*
X231070057Y-85439285D01*
X231070057Y-85439285D02*
X231165295Y-85486904D01*
X231165295Y-85486904D02*
X231260533Y-85486904D01*
X231260533Y-85486904D02*
X231403390Y-85439285D01*
X231403390Y-85439285D02*
X231974819Y-84867857D01*
X231974819Y-84867857D02*
X231974819Y-85486904D01*
X194360057Y-99124761D02*
X194312438Y-99029523D01*
X194312438Y-99029523D02*
X194217200Y-98934285D01*
X194217200Y-98934285D02*
X194074342Y-98791428D01*
X194074342Y-98791428D02*
X194026723Y-98696190D01*
X194026723Y-98696190D02*
X194026723Y-98600952D01*
X194264819Y-98648571D02*
X194217200Y-98553333D01*
X194217200Y-98553333D02*
X194121961Y-98458095D01*
X194121961Y-98458095D02*
X193931485Y-98410476D01*
X193931485Y-98410476D02*
X193598152Y-98410476D01*
X193598152Y-98410476D02*
X193407676Y-98458095D01*
X193407676Y-98458095D02*
X193312438Y-98553333D01*
X193312438Y-98553333D02*
X193264819Y-98648571D01*
X193264819Y-98648571D02*
X193264819Y-98839047D01*
X193264819Y-98839047D02*
X193312438Y-98934285D01*
X193312438Y-98934285D02*
X193407676Y-99029523D01*
X193407676Y-99029523D02*
X193598152Y-99077142D01*
X193598152Y-99077142D02*
X193931485Y-99077142D01*
X193931485Y-99077142D02*
X194121961Y-99029523D01*
X194121961Y-99029523D02*
X194217200Y-98934285D01*
X194217200Y-98934285D02*
X194264819Y-98839047D01*
X194264819Y-98839047D02*
X194264819Y-98648571D01*
X193360057Y-99458095D02*
X193312438Y-99505714D01*
X193312438Y-99505714D02*
X193264819Y-99600952D01*
X193264819Y-99600952D02*
X193264819Y-99839047D01*
X193264819Y-99839047D02*
X193312438Y-99934285D01*
X193312438Y-99934285D02*
X193360057Y-99981904D01*
X193360057Y-99981904D02*
X193455295Y-100029523D01*
X193455295Y-100029523D02*
X193550533Y-100029523D01*
X193550533Y-100029523D02*
X193693390Y-99981904D01*
X193693390Y-99981904D02*
X194264819Y-99410476D01*
X194264819Y-99410476D02*
X194264819Y-100029523D01*
X210972857Y-79959580D02*
X211020476Y-80007200D01*
X211020476Y-80007200D02*
X211163333Y-80054819D01*
X211163333Y-80054819D02*
X211258571Y-80054819D01*
X211258571Y-80054819D02*
X211401428Y-80007200D01*
X211401428Y-80007200D02*
X211496666Y-79911961D01*
X211496666Y-79911961D02*
X211544285Y-79816723D01*
X211544285Y-79816723D02*
X211591904Y-79626247D01*
X211591904Y-79626247D02*
X211591904Y-79483390D01*
X211591904Y-79483390D02*
X211544285Y-79292914D01*
X211544285Y-79292914D02*
X211496666Y-79197676D01*
X211496666Y-79197676D02*
X211401428Y-79102438D01*
X211401428Y-79102438D02*
X211258571Y-79054819D01*
X211258571Y-79054819D02*
X211163333Y-79054819D01*
X211163333Y-79054819D02*
X211020476Y-79102438D01*
X211020476Y-79102438D02*
X210972857Y-79150057D01*
X210020476Y-80054819D02*
X210591904Y-80054819D01*
X210306190Y-80054819D02*
X210306190Y-79054819D01*
X210306190Y-79054819D02*
X210401428Y-79197676D01*
X210401428Y-79197676D02*
X210496666Y-79292914D01*
X210496666Y-79292914D02*
X210591904Y-79340533D01*
X209639523Y-79150057D02*
X209591904Y-79102438D01*
X209591904Y-79102438D02*
X209496666Y-79054819D01*
X209496666Y-79054819D02*
X209258571Y-79054819D01*
X209258571Y-79054819D02*
X209163333Y-79102438D01*
X209163333Y-79102438D02*
X209115714Y-79150057D01*
X209115714Y-79150057D02*
X209068095Y-79245295D01*
X209068095Y-79245295D02*
X209068095Y-79340533D01*
X209068095Y-79340533D02*
X209115714Y-79483390D01*
X209115714Y-79483390D02*
X209687142Y-80054819D01*
X209687142Y-80054819D02*
X209068095Y-80054819D01*
X251424819Y-65147142D02*
X250948628Y-64813809D01*
X251424819Y-64575714D02*
X250424819Y-64575714D01*
X250424819Y-64575714D02*
X250424819Y-64956666D01*
X250424819Y-64956666D02*
X250472438Y-65051904D01*
X250472438Y-65051904D02*
X250520057Y-65099523D01*
X250520057Y-65099523D02*
X250615295Y-65147142D01*
X250615295Y-65147142D02*
X250758152Y-65147142D01*
X250758152Y-65147142D02*
X250853390Y-65099523D01*
X250853390Y-65099523D02*
X250901009Y-65051904D01*
X250901009Y-65051904D02*
X250948628Y-64956666D01*
X250948628Y-64956666D02*
X250948628Y-64575714D01*
X250758152Y-66004285D02*
X251424819Y-66004285D01*
X250377200Y-65766190D02*
X251091485Y-65528095D01*
X251091485Y-65528095D02*
X251091485Y-66147142D01*
X251424819Y-66575714D02*
X251424819Y-66766190D01*
X251424819Y-66766190D02*
X251377200Y-66861428D01*
X251377200Y-66861428D02*
X251329580Y-66909047D01*
X251329580Y-66909047D02*
X251186723Y-67004285D01*
X251186723Y-67004285D02*
X250996247Y-67051904D01*
X250996247Y-67051904D02*
X250615295Y-67051904D01*
X250615295Y-67051904D02*
X250520057Y-67004285D01*
X250520057Y-67004285D02*
X250472438Y-66956666D01*
X250472438Y-66956666D02*
X250424819Y-66861428D01*
X250424819Y-66861428D02*
X250424819Y-66670952D01*
X250424819Y-66670952D02*
X250472438Y-66575714D01*
X250472438Y-66575714D02*
X250520057Y-66528095D01*
X250520057Y-66528095D02*
X250615295Y-66480476D01*
X250615295Y-66480476D02*
X250853390Y-66480476D01*
X250853390Y-66480476D02*
X250948628Y-66528095D01*
X250948628Y-66528095D02*
X250996247Y-66575714D01*
X250996247Y-66575714D02*
X251043866Y-66670952D01*
X251043866Y-66670952D02*
X251043866Y-66861428D01*
X251043866Y-66861428D02*
X250996247Y-66956666D01*
X250996247Y-66956666D02*
X250948628Y-67004285D01*
X250948628Y-67004285D02*
X250853390Y-67051904D01*
%TO.C,R16*%
D12*
X196612742Y-101202500D02*
X197087258Y-101202500D01*
X196612742Y-102247500D02*
X197087258Y-102247500D01*
%TO.C,C58*%
X194849420Y-74050000D02*
X195130580Y-74050000D01*
X194849420Y-75070000D02*
X195130580Y-75070000D01*
%TO.C,C21*%
X205310581Y-81820000D02*
X205029419Y-81820000D01*
X205310581Y-82840000D02*
X205029419Y-82840000D01*
%TO.C,C9*%
X215800580Y-84250000D02*
X215519420Y-84250000D01*
X215800580Y-85270000D02*
X215519420Y-85270000D01*
%TO.C,R5*%
X235017258Y-105254443D02*
X234542742Y-105254443D01*
X235017258Y-106299443D02*
X234542742Y-106299443D01*
%TO.C,R32*%
X230872500Y-83987742D02*
X230872500Y-84462258D01*
X231917500Y-83987742D02*
X231917500Y-84462258D01*
%TO.C,R43*%
X194742742Y-69643334D02*
X195217258Y-69643334D01*
X194742742Y-70688334D02*
X195217258Y-70688334D01*
%TO.C,R44*%
X235064108Y-86228733D02*
X234589592Y-86228733D01*
X235064108Y-87273733D02*
X234589592Y-87273733D01*
%TO.C,C22*%
X199520000Y-80030580D02*
X199520000Y-79749420D01*
X200540000Y-80030580D02*
X200540000Y-79749420D01*
%TO.C,R19*%
X234542742Y-106614233D02*
X235017258Y-106614233D01*
X234542742Y-107659233D02*
X235017258Y-107659233D01*
%TO.C,R6*%
X235017258Y-103894653D02*
X234542742Y-103894653D01*
X235017258Y-104939653D02*
X234542742Y-104939653D01*
%TO.C,R3*%
X215422742Y-87137500D02*
X215897258Y-87137500D01*
X215422742Y-88182500D02*
X215897258Y-88182500D01*
%TO.C,C11*%
X199980000Y-90139420D02*
X199980000Y-90420580D01*
X201000000Y-90139420D02*
X201000000Y-90420580D01*
%TO.C,C13*%
X200900000Y-80025580D02*
X200900000Y-79744420D01*
X201920000Y-80025580D02*
X201920000Y-79744420D01*
%TO.C,R50*%
X251877500Y-61237258D02*
X251877500Y-60762742D01*
X252922500Y-61237258D02*
X252922500Y-60762742D01*
%TO.C,C19*%
X207811975Y-90415580D02*
X207811975Y-90134420D01*
X208831975Y-90415580D02*
X208831975Y-90134420D01*
%TO.C,C75*%
X234967430Y-89000000D02*
X234686270Y-89000000D01*
X234967430Y-90020000D02*
X234686270Y-90020000D01*
%TO.C,C55*%
X194839420Y-68209167D02*
X195120580Y-68209167D01*
X194839420Y-69229167D02*
X195120580Y-69229167D01*
%TO.C,C56*%
X190009420Y-71200000D02*
X190290580Y-71200000D01*
X190009420Y-72220000D02*
X190290580Y-72220000D01*
%TO.C,J16*%
X172005000Y-67940000D02*
X172005000Y-68820000D01*
X172005000Y-68820000D02*
X178005000Y-68820000D01*
X172005000Y-70480000D02*
X172005000Y-71360000D01*
X172005000Y-71360000D02*
X178005000Y-71360000D01*
X172005000Y-73020000D02*
X172005000Y-73900000D01*
X172005000Y-73900000D02*
X178005000Y-73900000D01*
X178005000Y-64450000D02*
X178005000Y-74850000D01*
X178005000Y-67940000D02*
X172005000Y-67940000D01*
X178005000Y-70480000D02*
X172005000Y-70480000D01*
X178005000Y-73020000D02*
X172005000Y-73020000D01*
X178005000Y-74850000D02*
X180745000Y-74850000D01*
X180745000Y-64450000D02*
X178005000Y-64450000D01*
X180745000Y-74850000D02*
X180745000Y-64450000D01*
X182855000Y-65400000D02*
X180745000Y-65400000D01*
X182855000Y-66280000D02*
X180745000Y-66280000D01*
X182855000Y-67940000D02*
X180745000Y-67940000D01*
X182855000Y-68820000D02*
X180745000Y-68820000D01*
X182855000Y-70480000D02*
X180745000Y-70480000D01*
X182855000Y-71360000D02*
X180745000Y-71360000D01*
X182855000Y-73020000D02*
X180745000Y-73020000D01*
X182855000Y-73900000D02*
X180745000Y-73900000D01*
X172005000Y-65400000D02*
X178005000Y-65400000D01*
X178005000Y-66280000D01*
X172005000Y-66280000D01*
X172005000Y-65400000D01*
G36*
X172005000Y-65400000D02*
G01*
X178005000Y-65400000D01*
X178005000Y-66280000D01*
X172005000Y-66280000D01*
X172005000Y-65400000D01*
G37*
X184425000Y-65020000D02*
X184085000Y-64550000D01*
X184765000Y-64550000D01*
X184425000Y-65020000D01*
G36*
X184425000Y-65020000D02*
G01*
X184085000Y-64550000D01*
X184765000Y-64550000D01*
X184425000Y-65020000D01*
G37*
%TO.C,R17*%
X198837500Y-99227742D02*
X198837500Y-99702258D01*
X199882500Y-99227742D02*
X199882500Y-99702258D01*
%TO.C,C48*%
X230231850Y-71184420D02*
X230231850Y-71465580D01*
X231251850Y-71184420D02*
X231251850Y-71465580D01*
%TO.C,C57*%
X190009420Y-74220000D02*
X190290580Y-74220000D01*
X190009420Y-75240000D02*
X190290580Y-75240000D01*
%TO.C,C73*%
X228365000Y-71259420D02*
X228365000Y-71540580D01*
X229385000Y-71259420D02*
X229385000Y-71540580D01*
%TO.C,R4*%
X215897258Y-85687500D02*
X215422742Y-85687500D01*
X215897258Y-86732500D02*
X215422742Y-86732500D01*
%TO.C,R47*%
X194752742Y-72617500D02*
X195227258Y-72617500D01*
X194752742Y-73662500D02*
X195227258Y-73662500D01*
%TO.C,R46*%
X189912742Y-69767500D02*
X190387258Y-69767500D01*
X189912742Y-70812500D02*
X190387258Y-70812500D01*
%TO.C,R55*%
X224742500Y-88412258D02*
X224742500Y-87937742D01*
X225787500Y-88412258D02*
X225787500Y-87937742D01*
%TO.C,R57*%
X227752500Y-88412258D02*
X227752500Y-87937742D01*
X228797500Y-88412258D02*
X228797500Y-87937742D01*
%TO.C,C24*%
X196449420Y-89310000D02*
X196730580Y-89310000D01*
X196449420Y-90330000D02*
X196730580Y-90330000D01*
%TO.C,C23*%
X194970000Y-81779420D02*
X194970000Y-82060580D01*
X195990000Y-81779420D02*
X195990000Y-82060580D01*
%TO.C,C8*%
X212440000Y-88390580D02*
X212440000Y-88109420D01*
X213460000Y-88390580D02*
X213460000Y-88109420D01*
%TO.C,R18*%
X234542742Y-102534863D02*
X235017258Y-102534863D01*
X234542742Y-103579863D02*
X235017258Y-103579863D01*
%TO.C,C15*%
X196449420Y-90720000D02*
X196730580Y-90720000D01*
X196449420Y-91740000D02*
X196730580Y-91740000D01*
%TO.C,R56*%
X226242500Y-88412258D02*
X226242500Y-87937742D01*
X227287500Y-88412258D02*
X227287500Y-87937742D01*
%TO.C,R20*%
X193527500Y-98972742D02*
X193527500Y-99447258D01*
X194572500Y-98972742D02*
X194572500Y-99447258D01*
%TO.C,C20*%
X208630000Y-76600580D02*
X208630000Y-76319420D01*
X209650000Y-76600580D02*
X209650000Y-76319420D01*
%TO.C,J15*%
X199895000Y-110490000D02*
X199895000Y-113230000D01*
X199895000Y-113230000D02*
X207755000Y-113230000D01*
X200845000Y-108380000D02*
X200845000Y-110490000D01*
X201725000Y-108380000D02*
X201725000Y-110490000D01*
X203385000Y-108380000D02*
X203385000Y-110490000D01*
X203385000Y-113230000D02*
X203385000Y-119230000D01*
X203385000Y-119230000D02*
X204265000Y-119230000D01*
X204265000Y-108380000D02*
X204265000Y-110490000D01*
X204265000Y-119230000D02*
X204265000Y-113230000D01*
X205925000Y-108380000D02*
X205925000Y-110490000D01*
X205925000Y-113230000D02*
X205925000Y-119230000D01*
X205925000Y-119230000D02*
X206805000Y-119230000D01*
X206805000Y-108380000D02*
X206805000Y-110490000D01*
X206805000Y-119230000D02*
X206805000Y-113230000D01*
X207755000Y-110490000D02*
X199895000Y-110490000D01*
X207755000Y-113230000D02*
X207755000Y-110490000D01*
X200845000Y-113230000D02*
X201725000Y-113230000D01*
X201725000Y-119230000D01*
X200845000Y-119230000D01*
X200845000Y-113230000D01*
G36*
X200845000Y-113230000D02*
G01*
X201725000Y-113230000D01*
X201725000Y-119230000D01*
X200845000Y-119230000D01*
X200845000Y-113230000D01*
G37*
X200465000Y-106810000D02*
X199995000Y-107150000D01*
X199995000Y-106470000D01*
X200465000Y-106810000D01*
G36*
X200465000Y-106810000D02*
G01*
X199995000Y-107150000D01*
X199995000Y-106470000D01*
X200465000Y-106810000D01*
G37*
%TO.C,R48*%
X189912742Y-72787500D02*
X190387258Y-72787500D01*
X189912742Y-73832500D02*
X190387258Y-73832500D01*
%TO.C,C14*%
X194970000Y-79180580D02*
X194970000Y-78899420D01*
X195990000Y-79180580D02*
X195990000Y-78899420D01*
%TO.C,C54*%
X194839420Y-66250000D02*
X195120580Y-66250000D01*
X194839420Y-67270000D02*
X195120580Y-67270000D01*
%TO.C,C10*%
X215484420Y-90190000D02*
X215765580Y-90190000D01*
X215484420Y-91210000D02*
X215765580Y-91210000D01*
%TO.C,R42*%
X235064108Y-90366883D02*
X234589592Y-90366883D01*
X235064108Y-91411883D02*
X234589592Y-91411883D01*
%TO.C,R21*%
X188967500Y-99377258D02*
X188967500Y-98902742D01*
X190012500Y-99377258D02*
X190012500Y-98902742D01*
%TO.C,R45*%
X195217258Y-64790833D02*
X194742742Y-64790833D01*
X195217258Y-65835833D02*
X194742742Y-65835833D01*
%TO.C,C74*%
X234967430Y-87620616D02*
X234686270Y-87620616D01*
X234967430Y-88640616D02*
X234686270Y-88640616D01*
%TO.C,Q1*%
X195310000Y-98305000D02*
X195310000Y-99825000D01*
X195310000Y-99825000D02*
X195360000Y-99825000D01*
X196310000Y-98305000D02*
X195310000Y-98305000D01*
X196480000Y-99825000D02*
X197260000Y-99825000D01*
X198380000Y-99825000D02*
X198430000Y-99825000D01*
X198430000Y-98305000D02*
X197430000Y-98305000D01*
X198430000Y-99825000D02*
X198430000Y-98305000D01*
X197250000Y-100365000D02*
X196920000Y-100605000D01*
X196920000Y-100125000D01*
X197250000Y-100365000D01*
G36*
X197250000Y-100365000D02*
G01*
X196920000Y-100605000D01*
X196920000Y-100125000D01*
X197250000Y-100365000D01*
G37*
%TO.C,C72*%
X232440000Y-84084420D02*
X232440000Y-84365580D01*
X233460000Y-84084420D02*
X233460000Y-84365580D01*
%TO.C,Q2*%
X190350000Y-98460000D02*
X190350000Y-99980000D01*
X190350000Y-99980000D02*
X190400000Y-99980000D01*
X191350000Y-98460000D02*
X190350000Y-98460000D01*
X191520000Y-99980000D02*
X192300000Y-99980000D01*
X193420000Y-99980000D02*
X193470000Y-99980000D01*
X193470000Y-98460000D02*
X192470000Y-98460000D01*
X193470000Y-99980000D02*
X193470000Y-98460000D01*
X192290000Y-100520000D02*
X191960000Y-100760000D01*
X191960000Y-100280000D01*
X192290000Y-100520000D01*
G36*
X192290000Y-100520000D02*
G01*
X191960000Y-100760000D01*
X191960000Y-100280000D01*
X192290000Y-100520000D01*
G37*
%TO.C,C12*%
X210189420Y-77660000D02*
X210470580Y-77660000D01*
X210189420Y-78680000D02*
X210470580Y-78680000D01*
%TO.C,R49*%
X251877500Y-65552742D02*
X251877500Y-66027258D01*
X252922500Y-65552742D02*
X252922500Y-66027258D01*
%TD*%
M02*
