%TF.GenerationSoftware,KiCad,Pcbnew,10.0.0*%
%TF.CreationDate,2026-04-04T14:48:32+08:00*%
%TF.ProjectId,HPM5E31,48504d35-4533-4312-9e6b-696361645f70,rev?*%
%TF.SameCoordinates,Original*%
%TF.FileFunction,Paste,Top*%
%TF.FilePolarity,Positive*%
%FSLAX46Y46*%
G04 Gerber Fmt 4.6, Leading zero omitted, Abs format (unit mm)*
G04 Created by KiCad (PCBNEW 10.0.0) date 2026-04-04 14:48:32*
%MOMM*%
%LPD*%
G01*
G04 APERTURE LIST*
G04 Aperture macros list*
%AMRoundRect*
0 Rectangle with rounded corners*
0 $1 Rounding radius*
0 $2 $3 $4 $5 $6 $7 $8 $9 X,Y pos of 4 corners*
0 Add a 4 corners polygon primitive as box body*
4,1,4,$2,$3,$4,$5,$6,$7,$8,$9,$2,$3,0*
0 Add four circle primitives for the rounded corners*
1,1,$1+$1,$2,$3*
1,1,$1+$1,$4,$5*
1,1,$1+$1,$6,$7*
1,1,$1+$1,$8,$9*
0 Add four rect primitives between the rounded corners*
20,1,$1+$1,$2,$3,$4,$5,0*
20,1,$1+$1,$4,$5,$6,$7,0*
20,1,$1+$1,$6,$7,$8,$9,0*
20,1,$1+$1,$8,$9,$2,$3,0*%
%AMRotRect*
0 Rectangle, with rotation*
0 The origin of the aperture is its center*
0 $1 length*
0 $2 width*
0 $3 Rotation angle, in degrees counterclockwise*
0 Add horizontal line*
21,1,$1,$2,0,0,$3*%
G04 Aperture macros list end*
%ADD10RoundRect,0.200000X0.200000X0.275000X-0.200000X0.275000X-0.200000X-0.275000X0.200000X-0.275000X0*%
%ADD11RoundRect,0.200000X-0.200000X-0.275000X0.200000X-0.275000X0.200000X0.275000X-0.200000X0.275000X0*%
%ADD12RoundRect,0.200000X0.275000X-0.200000X0.275000X0.200000X-0.275000X0.200000X-0.275000X-0.200000X0*%
%ADD13RoundRect,0.225000X-0.225000X-0.250000X0.225000X-0.250000X0.225000X0.250000X-0.225000X0.250000X0*%
%ADD14RoundRect,0.200000X-0.275000X0.200000X-0.275000X-0.200000X0.275000X-0.200000X0.275000X0.200000X0*%
%ADD15RoundRect,0.225000X-0.250000X0.225000X-0.250000X-0.225000X0.250000X-0.225000X0.250000X0.225000X0*%
%ADD16RoundRect,0.225000X0.250000X-0.225000X0.250000X0.225000X-0.250000X0.225000X-0.250000X-0.225000X0*%
%ADD17R,1.450000X0.600000*%
%ADD18R,1.450000X0.300000*%
%ADD19R,0.700000X1.700000*%
%ADD20RoundRect,0.218750X0.256250X-0.218750X0.256250X0.218750X-0.256250X0.218750X-0.256250X-0.218750X0*%
%ADD21RoundRect,0.150000X-0.150000X-0.700000X0.150000X-0.700000X0.150000X0.700000X-0.150000X0.700000X0*%
%ADD22RoundRect,0.250000X-0.250000X-1.100000X0.250000X-1.100000X0.250000X1.100000X-0.250000X1.100000X0*%
%ADD23RoundRect,0.135000X-0.185000X0.135000X-0.185000X-0.135000X0.185000X-0.135000X0.185000X0.135000X0*%
%ADD24RoundRect,0.225000X0.225000X0.250000X-0.225000X0.250000X-0.225000X-0.250000X0.225000X-0.250000X0*%
%ADD25RoundRect,0.200000X-0.250000X-0.200000X0.250000X-0.200000X0.250000X0.200000X-0.250000X0.200000X0*%
%ADD26RoundRect,0.225000X-0.225000X-0.375000X0.225000X-0.375000X0.225000X0.375000X-0.225000X0.375000X0*%
%ADD27RoundRect,0.250000X0.450000X-0.400000X0.450000X0.400000X-0.450000X0.400000X-0.450000X-0.400000X0*%
%ADD28RoundRect,0.237500X0.237500X1.012500X-0.237500X1.012500X-0.237500X-1.012500X0.237500X-1.012500X0*%
%ADD29RoundRect,0.150000X0.150000X0.700000X-0.150000X0.700000X-0.150000X-0.700000X0.150000X-0.700000X0*%
%ADD30RoundRect,0.250000X0.250000X1.100000X-0.250000X1.100000X-0.250000X-1.100000X0.250000X-1.100000X0*%
%ADD31R,1.350000X0.400000*%
%ADD32R,2.400000X2.000000*%
%ADD33RoundRect,0.250000X-0.375000X-0.850000X0.375000X-0.850000X0.375000X0.850000X-0.375000X0.850000X0*%
%ADD34RoundRect,0.150000X-0.700000X0.150000X-0.700000X-0.150000X0.700000X-0.150000X0.700000X0.150000X0*%
%ADD35RoundRect,0.250000X-1.100000X0.250000X-1.100000X-0.250000X1.100000X-0.250000X1.100000X0.250000X0*%
%ADD36RoundRect,0.150000X0.512500X0.150000X-0.512500X0.150000X-0.512500X-0.150000X0.512500X-0.150000X0*%
%ADD37RoundRect,0.112500X0.112500X-0.187500X0.112500X0.187500X-0.112500X0.187500X-0.112500X-0.187500X0*%
%ADD38RoundRect,0.200000X0.250000X0.200000X-0.250000X0.200000X-0.250000X-0.200000X0.250000X-0.200000X0*%
%ADD39RoundRect,0.250000X-0.850000X0.375000X-0.850000X-0.375000X0.850000X-0.375000X0.850000X0.375000X0*%
%ADD40RoundRect,0.218750X-0.256250X0.218750X-0.256250X-0.218750X0.256250X-0.218750X0.256250X0.218750X0*%
%ADD41R,1.072000X0.532000*%
%ADD42R,1.900000X1.900000*%
%ADD43R,1.600000X1.600000*%
%ADD44RoundRect,0.250000X-0.255000X0.255000X-0.255000X-0.255000X0.255000X-0.255000X0.255000X0.255000X0*%
%ADD45RoundRect,0.062500X-0.062500X0.375000X-0.062500X-0.375000X0.062500X-0.375000X0.062500X0.375000X0*%
%ADD46RoundRect,0.062500X-0.375000X0.062500X-0.375000X-0.062500X0.375000X-0.062500X0.375000X0.062500X0*%
%ADD47RoundRect,0.100000X0.250000X0.100000X-0.250000X0.100000X-0.250000X-0.100000X0.250000X-0.100000X0*%
%ADD48O,0.800000X0.200000*%
%ADD49O,0.200000X0.800000*%
%ADD50R,3.800000X3.800000*%
%ADD51RoundRect,0.150000X-0.587500X-0.150000X0.587500X-0.150000X0.587500X0.150000X-0.587500X0.150000X0*%
%ADD52RoundRect,0.090000X-0.360000X0.660000X-0.360000X-0.660000X0.360000X-0.660000X0.360000X0.660000X0*%
%ADD53RotRect,1.500000X1.000000X225.000000*%
%ADD54RoundRect,0.218750X0.218750X0.256250X-0.218750X0.256250X-0.218750X-0.256250X0.218750X-0.256250X0*%
%ADD55RoundRect,0.160000X-0.160000X-0.325000X0.160000X-0.325000X0.160000X0.325000X-0.160000X0.325000X0*%
%ADD56RoundRect,0.075000X-0.350000X-0.075000X0.350000X-0.075000X0.350000X0.075000X-0.350000X0.075000X0*%
%ADD57R,1.050000X0.650000*%
%ADD58RoundRect,0.221239X0.278761X-0.278761X0.278761X0.278761X-0.278761X0.278761X-0.278761X-0.278761X0*%
%ADD59RoundRect,0.075000X0.075000X-0.725000X0.075000X0.725000X-0.075000X0.725000X-0.075000X-0.725000X0*%
%ADD60RoundRect,0.075000X0.725000X-0.075000X0.725000X0.075000X-0.725000X0.075000X-0.725000X-0.075000X0*%
G04 APERTURE END LIST*
D10*
%TO.C,R2*%
X216915000Y-85770000D03*
X215265000Y-85770000D03*
%TD*%
D11*
%TO.C,R53*%
X237550000Y-69400000D03*
X239200000Y-69400000D03*
%TD*%
D12*
%TO.C,R9*%
X233178571Y-100900000D03*
X233178571Y-99250000D03*
%TD*%
D11*
%TO.C,R38*%
X227780000Y-90350000D03*
X229430000Y-90350000D03*
%TD*%
D13*
%TO.C,C52*%
X235946850Y-88125000D03*
X237496850Y-88125000D03*
%TD*%
D14*
%TO.C,R23*%
X225275000Y-67575000D03*
X225275000Y-69225000D03*
%TD*%
D15*
%TO.C,C25*%
X220864950Y-93275000D03*
X220864950Y-94825000D03*
%TD*%
D10*
%TO.C,R55*%
X226955000Y-87460000D03*
X225305000Y-87460000D03*
%TD*%
D13*
%TO.C,C7*%
X215143389Y-87139545D03*
X216693389Y-87139545D03*
%TD*%
D14*
%TO.C,R52*%
X235175000Y-66110000D03*
X235175000Y-67760000D03*
%TD*%
D11*
%TO.C,R36*%
X227780000Y-87460000D03*
X229430000Y-87460000D03*
%TD*%
D16*
%TO.C,C28*%
X225240000Y-105467500D03*
X225240000Y-103917500D03*
%TD*%
D17*
%TO.C,J14*%
X249312500Y-66850000D03*
X249312500Y-66050000D03*
D18*
X249312500Y-64850000D03*
X249312500Y-63850000D03*
X249312500Y-63350000D03*
X249312500Y-62350000D03*
D17*
X249312500Y-61150000D03*
X249312500Y-60350000D03*
X249312500Y-60350000D03*
X249312500Y-61150000D03*
D18*
X249312500Y-61850000D03*
X249312500Y-62850000D03*
X249312500Y-64350000D03*
X249312500Y-65350000D03*
D17*
X249312500Y-66050000D03*
X249312500Y-66850000D03*
%TD*%
D11*
%TO.C,R27*%
X220375000Y-76050000D03*
X222025000Y-76050000D03*
%TD*%
D16*
%TO.C,C39*%
X216130000Y-68450000D03*
X216130000Y-66900000D03*
%TD*%
D19*
%TO.C,U4*%
X199490000Y-101160000D03*
X199490000Y-96560000D03*
X195990200Y-101160000D03*
%TD*%
D20*
%TO.C,FB1*%
X223780000Y-105472500D03*
X223780000Y-103897500D03*
%TD*%
D14*
%TO.C,R61*%
X203540000Y-65265000D03*
X203540000Y-66915000D03*
%TD*%
%TO.C,R62*%
X219440000Y-97665000D03*
X219440000Y-99315000D03*
%TD*%
D16*
%TO.C,C37*%
X210090000Y-68450000D03*
X210090000Y-66900000D03*
%TD*%
D15*
%TO.C,C71*%
X232000000Y-63000000D03*
X232000000Y-64550000D03*
%TD*%
D12*
%TO.C,R8*%
X229660000Y-94900000D03*
X229660000Y-93250000D03*
%TD*%
D14*
%TO.C,R33*%
X230700000Y-86725000D03*
X230700000Y-88375000D03*
%TD*%
D21*
%TO.C,J10*%
X210780000Y-103680000D03*
X212030000Y-103680000D03*
X213280000Y-103680000D03*
X214530000Y-103680000D03*
X215780000Y-103680000D03*
X217030000Y-103680000D03*
D22*
X208930000Y-106880000D03*
X218880000Y-106880000D03*
%TD*%
D12*
%TO.C,R13*%
X208570000Y-68500000D03*
X208570000Y-66850000D03*
%TD*%
D11*
%TO.C,R29*%
X220375000Y-72967725D03*
X222025000Y-72967725D03*
%TD*%
D16*
%TO.C,C34*%
X234622857Y-98000000D03*
X234622857Y-96450000D03*
%TD*%
D23*
%TO.C,R64*%
X219290000Y-80910000D03*
X219290000Y-81930000D03*
%TD*%
D15*
%TO.C,C31*%
X234602857Y-99300000D03*
X234602857Y-100850000D03*
%TD*%
D24*
%TO.C,C42*%
X217675000Y-93800000D03*
X216125000Y-93800000D03*
%TD*%
D15*
%TO.C,C59*%
X240975000Y-66915000D03*
X240975000Y-68465000D03*
%TD*%
D25*
%TO.C,Y3*%
X227150000Y-84775000D03*
X228550000Y-84775000D03*
X228550000Y-83675000D03*
X227150000Y-83675000D03*
%TD*%
D14*
%TO.C,R22*%
X226750000Y-67575000D03*
X226750000Y-69225000D03*
%TD*%
D21*
%TO.C,J2*%
X202720000Y-103680000D03*
X203970000Y-103680000D03*
X205220000Y-103680000D03*
D22*
X200870000Y-106880000D03*
X207070000Y-106880000D03*
%TD*%
D26*
%TO.C,D2*%
X194322500Y-94050000D03*
X197622500Y-94050000D03*
%TD*%
D24*
%TO.C,C6*%
X211595000Y-95250000D03*
X210045000Y-95250000D03*
%TD*%
%TO.C,C5*%
X223615000Y-88040000D03*
X222065000Y-88040000D03*
%TD*%
D14*
%TO.C,R35*%
X226780000Y-70575000D03*
X226780000Y-72225000D03*
%TD*%
D23*
%TO.C,R65*%
X219370000Y-74360000D03*
X219370000Y-75380000D03*
%TD*%
D15*
%TO.C,C45*%
X232100000Y-86775000D03*
X232100000Y-88325000D03*
%TD*%
%TO.C,C35*%
X230891358Y-101415000D03*
X230891358Y-102965000D03*
%TD*%
D11*
%TO.C,R26*%
X220375000Y-79132275D03*
X222025000Y-79132275D03*
%TD*%
D16*
%TO.C,C49*%
X219376506Y-87915000D03*
X219376506Y-86365000D03*
%TD*%
D15*
%TO.C,C43*%
X225691575Y-83475000D03*
X225691575Y-85025000D03*
%TD*%
D27*
%TO.C,D4*%
X244375000Y-65960000D03*
X244375000Y-63060000D03*
%TD*%
D21*
%TO.C,J9*%
X190695000Y-103680000D03*
X191945000Y-103680000D03*
X193195000Y-103680000D03*
X194445000Y-103680000D03*
X195695000Y-103680000D03*
X196945000Y-103680000D03*
D22*
X188845000Y-106880000D03*
X198795000Y-106880000D03*
%TD*%
D11*
%TO.C,R25*%
X220375000Y-80673413D03*
X222025000Y-80673413D03*
%TD*%
D28*
%TO.C,L3*%
X235595000Y-63735000D03*
X233945000Y-63735000D03*
%TD*%
D29*
%TO.C,J6*%
X202815940Y-63410000D03*
X201565940Y-63410000D03*
D30*
X204665940Y-60210000D03*
X199715940Y-60210000D03*
%TD*%
D31*
%TO.C,U13*%
X193260000Y-99370100D03*
X190260000Y-98869900D03*
X193260000Y-98370100D03*
X190260000Y-97869900D03*
X193260000Y-97370100D03*
X190260000Y-96870200D03*
X193260000Y-96370100D03*
X190260000Y-95870200D03*
D32*
X191759900Y-93920000D03*
X191759900Y-101320000D03*
%TD*%
D13*
%TO.C,C3*%
X216125000Y-91105000D03*
X217675000Y-91105000D03*
%TD*%
D15*
%TO.C,C27*%
X222345000Y-103910000D03*
X222345000Y-105460000D03*
%TD*%
D16*
%TO.C,C50*%
X231825000Y-85000000D03*
X231825000Y-83450000D03*
%TD*%
D33*
%TO.C,L1*%
X215335000Y-89045000D03*
X217485000Y-89045000D03*
%TD*%
D15*
%TO.C,C62*%
X242375000Y-66915000D03*
X242375000Y-68465000D03*
%TD*%
D11*
%TO.C,R41*%
X222155000Y-71400000D03*
X223805000Y-71400000D03*
%TD*%
D13*
%TO.C,C53*%
X235925000Y-89550000D03*
X237475000Y-89550000D03*
%TD*%
D14*
%TO.C,R10*%
X233180000Y-102100000D03*
X233180000Y-103750000D03*
%TD*%
D15*
%TO.C,C36*%
X229405133Y-101415000D03*
X229405133Y-102965000D03*
%TD*%
D10*
%TO.C,R56*%
X226955000Y-88905000D03*
X225305000Y-88905000D03*
%TD*%
D34*
%TO.C,J8*%
X187480000Y-74881666D03*
X187480000Y-76131666D03*
X187480000Y-77381666D03*
X187480000Y-78631666D03*
X187480000Y-79881666D03*
X187480000Y-81131666D03*
D35*
X184280000Y-73031666D03*
X184280000Y-82981666D03*
%TD*%
D10*
%TO.C,R1*%
X201675000Y-74800000D03*
X200025000Y-74800000D03*
%TD*%
%TO.C,R57*%
X226955000Y-90350000D03*
X225305000Y-90350000D03*
%TD*%
D11*
%TO.C,R24*%
X220350000Y-81985000D03*
X222000000Y-81985000D03*
%TD*%
D36*
%TO.C,U9*%
X246512500Y-61260000D03*
X246512500Y-60310000D03*
X246512500Y-59360000D03*
X244237500Y-59360000D03*
X244237500Y-60310000D03*
X244237500Y-61260000D03*
%TD*%
D10*
%TO.C,R60*%
X220835000Y-71400000D03*
X219185000Y-71400000D03*
%TD*%
D37*
%TO.C,D8*%
X234383082Y-83595900D03*
X234383082Y-81495900D03*
%TD*%
D15*
%TO.C,C65*%
X233775000Y-59750000D03*
X233775000Y-61300000D03*
%TD*%
D38*
%TO.C,Y1*%
X201580000Y-72365000D03*
X200180000Y-72365000D03*
X200180000Y-73465000D03*
X201580000Y-73465000D03*
%TD*%
D15*
%TO.C,C26*%
X219400000Y-93300000D03*
X219400000Y-94850000D03*
%TD*%
%TO.C,C64*%
X235231000Y-59750000D03*
X235231000Y-61300000D03*
%TD*%
D16*
%TO.C,C38*%
X213130000Y-68450000D03*
X213130000Y-66900000D03*
%TD*%
D15*
%TO.C,C70*%
X229375000Y-66160000D03*
X229375000Y-67710000D03*
%TD*%
%TO.C,C29*%
X228250000Y-93300000D03*
X228250000Y-94850000D03*
%TD*%
D11*
%TO.C,R39*%
X222155000Y-68440000D03*
X223805000Y-68440000D03*
%TD*%
D39*
%TO.C,L2*%
X223216752Y-83373917D03*
X223216752Y-85523917D03*
%TD*%
D40*
%TO.C,F1*%
X246375000Y-64122500D03*
X246375000Y-65697500D03*
%TD*%
D15*
%TO.C,C68*%
X233725000Y-66160000D03*
X233725000Y-67710000D03*
%TD*%
D12*
%TO.C,R54*%
X218300000Y-84205000D03*
X218300000Y-82555000D03*
%TD*%
D11*
%TO.C,R30*%
X220375000Y-74508863D03*
X222025000Y-74508863D03*
%TD*%
D24*
%TO.C,C66*%
X216795000Y-83287672D03*
X215245000Y-83287672D03*
%TD*%
D41*
%TO.C,U11*%
X237026000Y-66250000D03*
X237026000Y-67200000D03*
X237026000Y-68150000D03*
X239324000Y-68150000D03*
X239324000Y-67200000D03*
X239324000Y-66250000D03*
%TD*%
D16*
%TO.C,C32*%
X234604286Y-103700000D03*
X234604286Y-102150000D03*
%TD*%
D24*
%TO.C,C1*%
X201585000Y-70920000D03*
X200035000Y-70920000D03*
%TD*%
D14*
%TO.C,R34*%
X228300000Y-70575000D03*
X228300000Y-72225000D03*
%TD*%
%TO.C,R12*%
X233198571Y-96400000D03*
X233198571Y-98050000D03*
%TD*%
D42*
%TO.C,U3*%
X210930100Y-64445000D03*
X213430000Y-64445000D03*
X215929900Y-64445000D03*
D43*
X218830000Y-59795000D03*
X208030000Y-59795000D03*
%TD*%
D11*
%TO.C,R40*%
X222155000Y-69940000D03*
X223805000Y-69940000D03*
%TD*%
D15*
%TO.C,C67*%
X232375000Y-59750000D03*
X232375000Y-61300000D03*
%TD*%
D44*
%TO.C,U2*%
X225701992Y-98420000D03*
X224451992Y-98420000D03*
X225701992Y-99670000D03*
X224451992Y-99670000D03*
D45*
X226326992Y-97107500D03*
X225826992Y-97107500D03*
X225326992Y-97107500D03*
X224826992Y-97107500D03*
X224326992Y-97107500D03*
X223826992Y-97107500D03*
D46*
X223139492Y-97795000D03*
X223139492Y-98295000D03*
X223139492Y-98795000D03*
X223139492Y-99295000D03*
X223139492Y-99795000D03*
X223139492Y-100295000D03*
D45*
X223826992Y-100982500D03*
X224326992Y-100982500D03*
X224826992Y-100982500D03*
X225326992Y-100982500D03*
X225826992Y-100982500D03*
X226326992Y-100982500D03*
D46*
X227014492Y-100295000D03*
X227014492Y-99795000D03*
X227014492Y-99295000D03*
X227014492Y-98795000D03*
X227014492Y-98295000D03*
X227014492Y-97795000D03*
%TD*%
D47*
%TO.C,FL1*%
X242725000Y-60765000D03*
X242725000Y-59965000D03*
X240825000Y-59965000D03*
X240825000Y-60765000D03*
%TD*%
D48*
%TO.C,U6*%
X229520850Y-79951000D03*
X229520850Y-79550000D03*
X229520850Y-79151000D03*
X229520850Y-78749000D03*
X229520850Y-78351000D03*
X229520850Y-77949000D03*
X229520850Y-77551000D03*
X229520850Y-77149000D03*
X229520850Y-76750000D03*
X229520850Y-76349000D03*
D49*
X228822850Y-75651000D03*
X228421850Y-75651000D03*
X228022850Y-75651000D03*
X227620850Y-75651000D03*
X227222850Y-75651000D03*
X226820850Y-75651000D03*
X226422850Y-75651000D03*
X226020850Y-75651000D03*
X225621850Y-75651000D03*
X225220850Y-75651000D03*
D48*
X224522850Y-76349000D03*
X224522850Y-76750000D03*
X224522850Y-77149000D03*
X224522850Y-77551000D03*
X224522850Y-77949000D03*
X224522850Y-78351000D03*
X224522850Y-78749000D03*
X224522850Y-79151000D03*
X224522850Y-79550000D03*
X224522850Y-79951000D03*
D49*
X225220850Y-80649000D03*
X225621850Y-80649000D03*
X226020850Y-80649000D03*
X226422850Y-80649000D03*
X226820850Y-80649000D03*
X227222850Y-80649000D03*
X227620850Y-80649000D03*
X228022850Y-80649000D03*
X228421850Y-80649000D03*
X228822850Y-80649000D03*
D50*
X227021850Y-78150000D03*
%TD*%
D12*
%TO.C,R15*%
X214610000Y-68500000D03*
X214610000Y-66850000D03*
%TD*%
D37*
%TO.C,D5*%
X234388082Y-73160900D03*
X234388082Y-71060900D03*
%TD*%
D10*
%TO.C,R51*%
X216848025Y-82020000D03*
X215198025Y-82020000D03*
%TD*%
D40*
%TO.C,FB2*%
X221075000Y-83377500D03*
X221075000Y-84952500D03*
%TD*%
D51*
%TO.C,U10*%
X215532500Y-78860000D03*
X215532500Y-80760000D03*
X217407500Y-79810000D03*
%TD*%
D15*
%TO.C,C60*%
X242375000Y-62815000D03*
X242375000Y-64365000D03*
%TD*%
D52*
%TO.C,D3*%
X193240000Y-78190000D03*
X189940000Y-78190000D03*
X189940000Y-83090000D03*
X193240000Y-83090000D03*
%TD*%
D16*
%TO.C,C63*%
X237130000Y-64935000D03*
X237130000Y-63385000D03*
%TD*%
%TO.C,C44*%
X230008425Y-85000000D03*
X230008425Y-83450000D03*
%TD*%
D53*
%TO.C,U7*%
X196428117Y-69081782D03*
X195438097Y-68091762D03*
X194448148Y-67101812D03*
X189852024Y-71697935D03*
X190841974Y-72687885D03*
X191831782Y-73678117D03*
X195968427Y-73218286D03*
X190311644Y-67561502D03*
%TD*%
D16*
%TO.C,C46*%
X220746506Y-87925000D03*
X220746506Y-86375000D03*
%TD*%
D25*
%TO.C,Y2*%
X223825000Y-94750508D03*
X225225000Y-94750508D03*
X225225000Y-93650508D03*
X223825000Y-93650508D03*
%TD*%
D16*
%TO.C,C18*%
X226750000Y-94850000D03*
X226750000Y-93300000D03*
%TD*%
D34*
%TO.C,J7*%
X187480000Y-94514828D03*
X187480000Y-95764828D03*
X187480000Y-97014828D03*
X187480000Y-98264828D03*
X187480000Y-99514828D03*
X187480000Y-100764828D03*
D35*
X184280000Y-92664828D03*
X184280000Y-102614828D03*
%TD*%
D15*
%TO.C,C17*%
X222250000Y-93300000D03*
X222250000Y-94850000D03*
%TD*%
D11*
%TO.C,R28*%
X220375000Y-77591138D03*
X222025000Y-77591138D03*
%TD*%
D15*
%TO.C,C41*%
X231340000Y-70625000D03*
X231340000Y-72175000D03*
%TD*%
D12*
%TO.C,R31*%
X229820000Y-72225000D03*
X229820000Y-70575000D03*
%TD*%
%TO.C,R11*%
X233200000Y-95200000D03*
X233200000Y-93550000D03*
%TD*%
D15*
%TO.C,C69*%
X232275000Y-66160000D03*
X232275000Y-67710000D03*
%TD*%
D54*
%TO.C,D1*%
X202707500Y-97303246D03*
X201132500Y-97303246D03*
%TD*%
D16*
%TO.C,C2*%
X198560000Y-73545000D03*
X198560000Y-71995000D03*
%TD*%
D37*
%TO.C,D6*%
X234388082Y-76560900D03*
X234388082Y-74460900D03*
%TD*%
D15*
%TO.C,C61*%
X240975000Y-62815000D03*
X240975000Y-64365000D03*
%TD*%
D20*
%TO.C,FB3*%
X230825000Y-67722500D03*
X230825000Y-66147500D03*
%TD*%
D15*
%TO.C,C47*%
X219625000Y-83410000D03*
X219625000Y-84960000D03*
%TD*%
D55*
%TO.C,U5*%
X200210000Y-65665000D03*
X200210000Y-66865000D03*
X201010000Y-65665000D03*
X201010000Y-66865000D03*
D56*
X199160000Y-65290000D03*
X199160000Y-65940000D03*
X199160000Y-66590000D03*
X199160000Y-67240000D03*
X202060000Y-67240000D03*
X202060000Y-66590000D03*
X202060000Y-65940000D03*
X202060000Y-65290000D03*
%TD*%
D34*
%TO.C,J4*%
X187480000Y-85960000D03*
X187480000Y-87210000D03*
X187480000Y-88460000D03*
X187480000Y-89710000D03*
D35*
X184280000Y-84110000D03*
X184280000Y-91560000D03*
%TD*%
D12*
%TO.C,R14*%
X211610000Y-68500000D03*
X211610000Y-66850000D03*
%TD*%
D57*
%TO.C,SW1*%
X219515000Y-89520000D03*
X223665000Y-89520000D03*
X219515000Y-91670000D03*
X223665000Y-91670000D03*
%TD*%
D10*
%TO.C,R58*%
X220835000Y-68440000D03*
X219185000Y-68440000D03*
%TD*%
D34*
%TO.C,J12*%
X187480000Y-66243333D03*
X187480000Y-67493333D03*
X187480000Y-68743333D03*
X187480000Y-69993333D03*
D35*
X184280000Y-64393333D03*
X184280000Y-71843333D03*
%TD*%
D37*
%TO.C,D7*%
X234388082Y-79960900D03*
X234388082Y-77860900D03*
%TD*%
D13*
%TO.C,C4*%
X216125000Y-92452500D03*
X217675000Y-92452500D03*
%TD*%
D23*
%TO.C,R63*%
X219290000Y-79020000D03*
X219290000Y-80040000D03*
%TD*%
D15*
%TO.C,C33*%
X234624286Y-93600000D03*
X234624286Y-95150000D03*
%TD*%
D10*
%TO.C,R7*%
X202745000Y-96060000D03*
X201095000Y-96060000D03*
%TD*%
D11*
%TO.C,R37*%
X227780000Y-88920000D03*
X229430000Y-88920000D03*
%TD*%
D58*
%TO.C,U1*%
X203821975Y-86759817D03*
X205121975Y-86759817D03*
X206421975Y-86759817D03*
X203821975Y-85059817D03*
X205121975Y-85059817D03*
X206421975Y-85059817D03*
X203821975Y-83359817D03*
X205121975Y-83359817D03*
X206421975Y-83359817D03*
D59*
X199121975Y-92734817D03*
X199621975Y-92734817D03*
X200121975Y-92734817D03*
X200621975Y-92734817D03*
X201121975Y-92734817D03*
X201621975Y-92734817D03*
X202121975Y-92734817D03*
X202621975Y-92734817D03*
X203121975Y-92734817D03*
X203621975Y-92734817D03*
X204121975Y-92734817D03*
X204621975Y-92734817D03*
X205121975Y-92734817D03*
X205621975Y-92734817D03*
X206121975Y-92734817D03*
X206621975Y-92734817D03*
X207121975Y-92734817D03*
X207621975Y-92734817D03*
X208121975Y-92734817D03*
X208621975Y-92734817D03*
X209121975Y-92734817D03*
X209621975Y-92734817D03*
X210121975Y-92734817D03*
X210621975Y-92734817D03*
X211121975Y-92734817D03*
D60*
X212796975Y-91059817D03*
X212796975Y-90559817D03*
X212796975Y-90059817D03*
X212796975Y-89559817D03*
X212796975Y-89059817D03*
X212796975Y-88559817D03*
X212796975Y-88059817D03*
X212796975Y-87559817D03*
X212796975Y-87059817D03*
X212796975Y-86559817D03*
X212796975Y-86059817D03*
X212796975Y-85559817D03*
X212796975Y-85059817D03*
X212796975Y-84559817D03*
X212796975Y-84059817D03*
X212796975Y-83559817D03*
X212796975Y-83059817D03*
X212796975Y-82559817D03*
X212796975Y-82059817D03*
X212796975Y-81559817D03*
X212796975Y-81059817D03*
X212796975Y-80559817D03*
X212796975Y-80059817D03*
X212796975Y-79559817D03*
X212796975Y-79059817D03*
D59*
X211121975Y-77384817D03*
X210621975Y-77384817D03*
X210121975Y-77384817D03*
X209621975Y-77384817D03*
X209121975Y-77384817D03*
X208621975Y-77384817D03*
X208121975Y-77384817D03*
X207621975Y-77384817D03*
X207121975Y-77384817D03*
X206621975Y-77384817D03*
X206121975Y-77384817D03*
X205621975Y-77384817D03*
X205121975Y-77384817D03*
X204621975Y-77384817D03*
X204121975Y-77384817D03*
X203621975Y-77384817D03*
X203121975Y-77384817D03*
X202621975Y-77384817D03*
X202121975Y-77384817D03*
X201621975Y-77384817D03*
X201121975Y-77384817D03*
X200621975Y-77384817D03*
X200121975Y-77384817D03*
X199621975Y-77384817D03*
X199121975Y-77384817D03*
D60*
X197446975Y-79059817D03*
X197446975Y-79559817D03*
X197446975Y-80059817D03*
X197446975Y-80559817D03*
X197446975Y-81059817D03*
X197446975Y-81559817D03*
X197446975Y-82059817D03*
X197446975Y-82559817D03*
X197446975Y-83059817D03*
X197446975Y-83559817D03*
X197446975Y-84059817D03*
X197446975Y-84559817D03*
X197446975Y-85059817D03*
X197446975Y-85559817D03*
X197446975Y-86059817D03*
X197446975Y-86559817D03*
X197446975Y-87059817D03*
X197446975Y-87559817D03*
X197446975Y-88059817D03*
X197446975Y-88559817D03*
X197446975Y-89059817D03*
X197446975Y-89559817D03*
X197446975Y-90059817D03*
X197446975Y-90559817D03*
X197446975Y-91059817D03*
%TD*%
D15*
%TO.C,C40*%
X194994220Y-77680231D03*
X194994220Y-79230231D03*
%TD*%
%TO.C,C51*%
X225260000Y-70625000D03*
X225260000Y-72175000D03*
%TD*%
D36*
%TO.C,U12*%
X239312500Y-61860000D03*
X239312500Y-60910000D03*
X239312500Y-59960000D03*
X237037500Y-59960000D03*
X237037500Y-61860000D03*
%TD*%
D10*
%TO.C,R59*%
X220835000Y-69920000D03*
X219185000Y-69920000D03*
%TD*%
D29*
%TO.C,J13*%
X196255000Y-63410000D03*
X195005000Y-63410000D03*
X193755000Y-63410000D03*
X192505000Y-63410000D03*
X191255000Y-63410000D03*
X190005000Y-63410000D03*
D30*
X198105000Y-60210000D03*
X188155000Y-60210000D03*
%TD*%
D16*
%TO.C,C30*%
X227918908Y-102965000D03*
X227918908Y-101415000D03*
%TD*%
M02*
