M48
; DRILL file KiCad 10.0.0 date 2026-03-25T16:21:24
; FORMAT={-:-/ absolute / metric / decimal}
; #@! TF.CreationDate,2026-03-25T16:21:24+08:00
; #@! TF.GenerationSoftware,Kicad,Pcbnew,10.0.0
; #@! TF.FileFunction,Plated,1,4,PTH
FMAT,2
METRIC
; #@! TA.AperFunction,Plated,PTH,ComponentDrill
T1C0.200
; #@! TA.AperFunction,Plated,PTH,ViaDrill
T2C0.305
; #@! TA.AperFunction,Plated,PTH,ComponentDrill
T3C0.400
; #@! TA.AperFunction,Plated,PTH,ComponentDrill
T4C0.600
; #@! TA.AperFunction,Plated,PTH,ComponentDrill
T5C0.650
; #@! TA.AperFunction,Plated,PTH,ComponentDrill
T6C0.890
; #@! TA.AperFunction,Plated,PTH,ComponentDrill
T7C0.910
; #@! TA.AperFunction,Plated,PTH,ComponentDrill
T8C1.000
; #@! TA.AperFunction,Plated,PTH,ComponentDrill
T9C1.020
; #@! TA.AperFunction,Plated,PTH,ComponentDrill
T10C1.100
; #@! TA.AperFunction,Plated,PTH,ComponentDrill
T11C1.630
; #@! TA.AperFunction,Plated,PTH,ComponentDrill
T12C1.700
; #@! TA.AperFunction,Plated,PTH,ComponentDrill
T13C2.200
%
G90
G05
T1
X224.077Y-98.045
X224.077Y-99.045
X224.077Y-100.045
X225.077Y-98.045
X225.077Y-99.045
X225.077Y-100.045
X226.077Y-98.045
X226.077Y-99.045
X226.077Y-100.045
T2
X183.61Y-64.393
X184.43Y-67.09
X184.45Y-68.45
X184.47Y-69.75
X184.47Y-72.15
X184.5Y-74.93
X184.5Y-76.32
X184.5Y-77.71
X184.54Y-79.27
X184.54Y-80.66
X184.54Y-82.05
X184.54Y-88.18
X184.54Y-89.57
X184.54Y-90.96
X184.55Y-83.49
X184.55Y-84.88
X184.55Y-86.27
X184.57Y-92.35
X184.57Y-93.74
X184.57Y-95.13
X184.59Y-100.86
X184.59Y-102.25
X184.6Y-96.34
X184.6Y-97.73
X184.6Y-99.12
X186.11Y-94.89
X186.11Y-96.86
X186.13Y-98.89
X186.35Y-100.01
X187.4Y-70.65
X187.42Y-94.52
X187.48Y-86.8
X187.65Y-63.86
X188.299Y-102.689
X188.472Y-92.216
X188.59Y-68.75
X188.65Y-99.06
X188.79Y-64.73
X188.8Y-85.06
X188.89Y-101.02
X188.95Y-66.57
X189.0Y-59.795
X189.22Y-67.6
X189.34Y-82.63
X189.36Y-83.32
X189.375Y-71.71
X189.59Y-100.08
X189.7Y-73.31
X189.878Y-65.943
X189.89Y-83.91
X190.08Y-63.62
X190.174Y-59.795
X190.57Y-99.5
X190.975Y-70.29
X191.23Y-79.44
X191.26Y-82.58
X191.34Y-74.82
X191.348Y-59.795
X191.48Y-77.35
X191.61Y-78.27
X191.779Y-67.222
X191.93Y-103.77
X192.01Y-70.56
X192.06Y-99.46
X192.26Y-68.19
X192.522Y-59.795
X192.73Y-95.6
X192.78Y-92.341
X192.992Y-86.028
X193.11Y-67.5
X193.119Y-89.239
X193.16Y-65.07
X193.336Y-87.925
X193.56Y-102.84
X193.695Y-59.795
X193.89Y-97.37
X194.155Y-65.313
X194.155Y-69.52
X194.215Y-73.84
X194.322Y-94.22
X194.358Y-66.76
X194.41Y-79.23
X194.869Y-59.795
X195.01Y-72.7
X195.09Y-89.84
X195.09Y-91.18
X195.12Y-79.41
X195.21Y-74.18
X195.438Y-68.092
X195.45Y-74.72
X195.5Y-70.25
X195.68Y-82.03
X195.94Y-88.0
X196.043Y-59.795
X196.05Y-78.14
X196.05Y-98.86
X196.07Y-65.1
X196.24Y-97.16
X196.26Y-87.35
X196.27Y-92.23
X196.945Y-105.045
X197.05Y-65.03
X197.217Y-59.795
X197.33Y-65.58
X197.48Y-92.3
X197.623Y-94.05
X197.73Y-61.86
X198.25Y-103.81
X198.29Y-66.07
X198.391Y-59.795
X198.61Y-89.39
X198.85Y-99.41
X199.13Y-103.8
X199.41Y-82.15
X199.428Y-88.65
X199.45Y-99.26
X199.49Y-101.16
X199.51Y-95.63
X199.565Y-59.795
X199.73Y-86.54
X199.95Y-82.99
X200.2Y-78.97
X200.32Y-86.69
X200.42Y-67.5
X200.49Y-89.505
X200.49Y-91.055
X200.6Y-61.56
X200.63Y-65.05
X200.71Y-80.66
X200.727Y-70.323
X200.739Y-59.795
X200.75Y-101.04
X201.07Y-83.05
X201.12Y-79.06
X201.13Y-67.51
X201.17Y-69.72
X201.38Y-96.15
X201.41Y-80.66
X201.6Y-94.7
X201.631Y-100.177
X201.74Y-99.43
X201.79Y-83.06
X201.913Y-59.795
X201.97Y-101.46
X202.02Y-96.86
X202.14Y-81.15
X202.2Y-94.32
X202.255Y-69.285
X202.73Y-84.96
X202.8Y-68.86
X203.016Y-85.69
X203.086Y-59.795
X203.1Y-94.08
X203.44Y-68.62
X203.67Y-96.66
X203.698Y-84.96
X203.81Y-61.9
X203.84Y-81.23
X203.97Y-103.73
X203.984Y-85.69
X204.054Y-86.45
X204.1Y-68.24
X204.224Y-89.3
X204.26Y-59.795
X204.264Y-89.87
X204.38Y-98.44
X204.47Y-90.91
X204.666Y-84.96
X204.77Y-74.13
X204.79Y-96.24
X204.8Y-74.91
X204.952Y-85.69
X204.97Y-69.89
X205.022Y-86.45
X205.07Y-68.68
X205.1Y-75.9
X205.192Y-89.3
X205.22Y-103.73
X205.232Y-89.87
X205.28Y-90.91
X205.31Y-78.73
X205.434Y-59.795
X205.59Y-79.41
X205.634Y-84.96
X205.643Y-94.325
X205.69Y-80.59
X205.8Y-97.02
X205.92Y-85.69
X205.99Y-86.45
X206.05Y-68.67
X206.125Y-79.0
X206.15Y-72.9
X206.16Y-89.3
X206.2Y-89.87
X206.27Y-97.71
X206.45Y-74.65
X206.573Y-62.041
X206.602Y-84.96
X206.608Y-59.795
X206.61Y-99.28
X206.68Y-66.1
X206.72Y-91.48
X206.77Y-72.27
X206.78Y-104.22
X206.829Y-81.07
X206.887Y-63.508
X206.888Y-85.69
X206.958Y-86.45
X207.008Y-68.37
X207.07Y-82.51
X207.1Y-79.2
X207.128Y-89.3
X207.168Y-89.87
X207.186Y-103.129
X207.32Y-94.85
X207.33Y-81.57
X207.57Y-84.96
X207.6Y-72.4
X207.622Y-93.86
X207.782Y-59.795
X207.79Y-104.23
X207.8Y-82.6
X207.8Y-89.82
X207.825Y-79.175
X207.856Y-85.69
X207.91Y-95.52
X207.926Y-86.45
X208.1Y-78.45
X208.18Y-82.07
X208.28Y-69.98
X208.515Y-64.193
X208.57Y-68.5
X208.75Y-84.83
X208.956Y-59.795
X208.978Y-82.835
X209.025Y-78.975
X209.1Y-75.6
X209.13Y-64.95
X209.23Y-84.32
X209.622Y-93.84
X209.65Y-86.08
X209.65Y-86.8
X209.675Y-74.7
X209.7Y-78.66
X209.74Y-85.31
X209.78Y-87.81
X209.78Y-88.46
X210.01Y-105.1
X210.13Y-59.795
X210.17Y-74.2
X210.325Y-78.625
X210.398Y-82.835
X210.82Y-103.26
X211.125Y-76.25
X211.304Y-59.795
X211.4Y-87.07
X211.41Y-84.44
X211.44Y-85.63
X211.53Y-86.49
X211.595Y-95.25
X212.132Y-76.893
X212.3Y-66.83
X212.44Y-76.15
X212.477Y-59.795
X212.93Y-77.11
X213.157Y-92.903
X213.305Y-103.165
X213.505Y-61.756
X213.651Y-59.795
X213.79Y-99.56
X214.0Y-77.47
X214.0Y-83.79
X214.06Y-89.21
X214.14Y-85.82
X214.22Y-83.18
X214.61Y-80.0
X214.631Y-91.973
X214.64Y-103.29
X214.825Y-59.795
X214.85Y-90.7
X215.09Y-77.47
X215.104Y-94.279
X215.29Y-69.82
X215.36Y-74.11
X215.39Y-66.6
X215.58Y-88.35
X215.58Y-89.06
X215.58Y-89.68
X215.999Y-59.795
X216.13Y-69.84
X216.23Y-77.51
X216.485Y-87.66
X216.96Y-84.24
X217.03Y-103.68
X217.173Y-59.795
X217.23Y-87.1
X217.338Y-66.475
X217.525Y-65.618
X217.7Y-88.6
X217.7Y-95.63
X218.135Y-83.26
X218.168Y-64.196
X218.17Y-74.37
X218.18Y-78.9
X218.23Y-72.61
X218.325Y-98.27
X218.347Y-59.795
X218.86Y-90.68
X218.92Y-69.02
X219.097Y-83.938
X219.275Y-80.8
X219.505Y-61.756
X219.515Y-89.52
X219.515Y-91.67
X219.521Y-59.795
X219.59Y-68.16
X220.03Y-69.15
X220.04Y-88.04
X220.178Y-102.394
X220.675Y-82.575
X220.695Y-59.795
X220.704Y-98.387
X220.88Y-93.3
X220.89Y-68.44
X221.12Y-83.22
X221.4Y-88.04
X221.52Y-69.77
X221.868Y-59.795
X221.9Y-99.8
X221.97Y-76.05
X222.025Y-77.591
X222.2Y-102.31
X222.505Y-61.756
X222.83Y-81.48
X223.042Y-59.795
X223.46Y-106.75
X223.6Y-105.46
X223.665Y-91.67
X223.68Y-102.68
X223.824Y-80.746
X224.09Y-72.7
X224.11Y-73.71
X224.216Y-59.795
X224.475Y-87.12
X224.79Y-91.67
X224.93Y-71.07
X225.025Y-81.3
X225.075Y-73.075
X225.25Y-82.5
X225.275Y-69.225
X225.29Y-102.65
X225.325Y-81.775
X225.33Y-89.63
X225.33Y-90.54
X225.36Y-106.73
X225.375Y-96.1
X225.39Y-59.795
X225.487Y-79.2
X225.5Y-79.76
X225.8Y-71.53
X225.825Y-73.15
X225.84Y-102.94
X225.9Y-83.675
X226.0Y-68.36
X226.022Y-82.453
X226.07Y-96.137
X226.09Y-90.64
X226.095Y-79.2
X226.105Y-78.55
X226.107Y-79.76
X226.672Y-77.93
X226.702Y-79.2
X226.712Y-78.55
X226.715Y-79.76
X226.73Y-73.36
X226.82Y-82.23
X226.95Y-69.425
X227.28Y-77.34
X227.28Y-77.93
X227.31Y-79.2
X227.32Y-78.55
X227.322Y-79.76
X227.43Y-73.96
X227.645Y-91.83
X227.692Y-101.218
X227.78Y-90.35
X227.887Y-77.34
X227.887Y-77.93
X227.897Y-76.74
X227.917Y-79.2
X227.927Y-78.55
X227.93Y-79.76
X227.946Y-96.786
X228.55Y-68.65
X228.55Y-69.33
X228.62Y-89.79
X228.66Y-90.64
X228.85Y-73.66
X228.9Y-93.25
X229.05Y-80.7
X229.325Y-75.55
X229.405Y-101.415
X229.725Y-69.54
X229.725Y-70.925
X229.775Y-82.225
X229.775Y-86.375
X229.993Y-84.607
X230.575Y-81.6
X230.645Y-90.45
X230.645Y-91.83
X230.825Y-65.455
X230.825Y-66.11
X230.891Y-101.415
X231.23Y-70.61
X231.325Y-81.6
X231.55Y-65.455
X231.55Y-66.11
X231.697Y-95.068
X231.75Y-77.05
X231.865Y-64.2
X231.88Y-84.98
X231.885Y-64.81
X231.89Y-86.98
X232.1Y-102.333
X232.225Y-79.225
X232.275Y-65.455
X232.275Y-66.11
X232.36Y-59.91
X232.59Y-64.2
X232.61Y-64.81
X232.68Y-103.25
X232.69Y-69.54
X233.0Y-65.455
X233.0Y-66.11
X233.01Y-83.66
X233.06Y-59.91
X233.06Y-85.22
X233.2Y-93.55
X233.22Y-98.62
X233.315Y-64.2
X233.335Y-64.81
X233.59Y-68.82
X233.725Y-65.455
X233.725Y-66.11
X233.77Y-59.91
X233.77Y-61.95
X234.04Y-64.2
X234.06Y-64.81
X234.4Y-78.671
X234.4Y-79.229
X234.45Y-65.455
X234.45Y-66.11
X234.49Y-59.91
X234.587Y-61.95
X234.603Y-99.3
X234.604Y-103.7
X234.623Y-98.0
X234.624Y-93.6
X235.1Y-59.91
X235.175Y-65.455
X235.175Y-66.11
X235.404Y-61.95
X235.602Y-89.51
X235.66Y-59.91
X235.72Y-88.131
X236.08Y-67.01
X236.221Y-61.95
X237.037Y-61.95
X238.03Y-59.11
X239.19Y-69.27
X239.312Y-60.91
X240.9Y-65.96
X240.93Y-65.14
X241.11Y-59.965
X241.11Y-60.765
X241.13Y-61.83
X241.75Y-65.97
X241.79Y-65.16
X241.82Y-61.8
X242.4Y-61.78
X242.75Y-65.98
X242.78Y-65.19
X244.04Y-68.11
X245.41Y-68.07
X246.117Y-62.78
X246.13Y-67.62
X246.512Y-59.36
X246.512Y-61.26
X246.76Y-68.12
X247.05Y-67.4
X248.07Y-64.13
X250.49Y-63.42
X252.33Y-64.94
X252.4Y-60.175
X252.4Y-66.615
X252.44Y-61.89
X254.83Y-61.47
X254.87Y-62.89
X254.87Y-65.04
T3
X183.34Y-60.95
X183.34Y-106.04
X183.823Y-59.783
X183.823Y-62.117
X183.823Y-104.873
X183.823Y-107.207
X184.99Y-59.3
X184.99Y-62.6
X184.99Y-104.39
X184.99Y-107.69
X186.157Y-59.783
X186.157Y-62.117
X186.157Y-104.873
X186.157Y-107.207
X186.64Y-60.95
X186.64Y-106.04
X227.15Y-61.01
X227.15Y-106.041
X227.633Y-59.843
X227.633Y-62.177
X227.633Y-104.874
X227.633Y-107.207
X228.8Y-59.36
X228.8Y-62.66
X228.8Y-104.391
X228.8Y-107.691
X229.967Y-59.843
X229.967Y-62.177
X229.967Y-104.874
X229.967Y-107.207
X230.45Y-61.01
X230.45Y-106.041
T5
X203.42Y-99.74
X203.42Y-101.01
X204.69Y-99.74
X204.69Y-101.01
X205.96Y-99.74
X205.96Y-101.01
X207.23Y-99.74
X207.23Y-101.01
X208.5Y-99.74
X208.5Y-101.01
T6
X237.475Y-94.55
X237.475Y-97.09
X237.475Y-99.63
X237.475Y-102.17
X240.015Y-95.81
X240.015Y-98.35
X240.015Y-100.89
X240.015Y-103.43
T7
X237.535Y-74.731
X237.535Y-77.271
X237.535Y-79.811
X237.535Y-82.351
X237.535Y-84.891
X240.075Y-73.56
X240.075Y-76.1
X240.075Y-78.64
X240.075Y-81.18
X240.075Y-83.72
T8
X190.575Y-86.11
X190.575Y-88.65
X190.575Y-91.19
X220.87Y-64.5
X223.41Y-64.5
X225.95Y-64.5
T9
X251.275Y-92.365
X251.275Y-94.905
X251.275Y-103.075
X251.275Y-105.615
T10
X251.325Y-72.546
X251.325Y-75.086
X251.325Y-83.256
X251.325Y-85.796
T11
X243.325Y-91.245
X243.325Y-106.735
T12
X243.374Y-71.426
X243.374Y-86.916
T13
X184.99Y-60.95
X184.99Y-106.04
X228.8Y-61.01
X228.8Y-106.041
T4
G00X249.677Y-59.28
M15
G01X250.777Y-59.28
M16
G05
G00X249.677Y-67.92
M15
G01X250.777Y-67.92
M16
G05
G00X254.107Y-59.28
M15
G01X254.707Y-59.28
M16
G05
G00X254.107Y-67.92
M15
G01X254.707Y-67.92
M16
G05
M30
